<svg xmlns="http://www.w3.org/2000/svg" width="104" height="34" fill="none" viewBox="0 0 104 34">
  <path fill="#64CCC5" d="M1.063 12.719V11h12v1.719H8.03V27H6.094V12.719H1.062Zm18.03 14.531c-1.155 0-2.153-.255-2.991-.766-.834-.515-1.477-1.234-1.93-2.156-.448-.927-.672-2.005-.672-3.234 0-1.23.224-2.313.672-3.25.453-.943 1.083-1.677 1.89-2.203.813-.532 1.76-.797 2.844-.797a5.69 5.69 0 0 1 1.852.312c.61.209 1.164.547 1.664 1.016.5.463.898 1.078 1.195 1.844.297.765.445 1.708.445 2.828v.781h-9.25v-1.594h7.376c0-.677-.136-1.281-.407-1.812a3.062 3.062 0 0 0-1.14-1.258c-.49-.307-1.068-.461-1.735-.461-.734 0-1.37.182-1.906.547a3.61 3.61 0 0 0-1.227 1.406 4.132 4.132 0 0 0-.43 1.86v1.062c0 .906.157 1.674.47 2.305.317.625.757 1.101 1.32 1.43.562.322 1.216.484 1.96.484a3.99 3.99 0 0 0 1.313-.203c.396-.141.737-.35 1.024-.625a2.84 2.84 0 0 0 .664-1.047l1.781.5a3.95 3.95 0 0 1-.945 1.593c-.443.454-.99.808-1.64 1.063-.652.25-1.384.375-2.196.375Zm11.305.031c-.76 0-1.45-.143-2.07-.43a3.553 3.553 0 0 1-1.476-1.257c-.365-.552-.547-1.219-.547-2 0-.688.135-1.245.406-1.672.27-.432.633-.771 1.086-1.016a5.71 5.71 0 0 1 1.5-.547 18.253 18.253 0 0 1 1.664-.297c.73-.093 1.32-.164 1.773-.21.459-.053.792-.139 1-.258.214-.12.32-.328.32-.625v-.063c0-.77-.21-1.37-.632-1.797-.417-.427-1.05-.64-1.899-.64-.88 0-1.57.192-2.07.578-.5.385-.851.797-1.055 1.234l-1.75-.625c.313-.729.73-1.297 1.25-1.703a4.687 4.687 0 0 1 1.72-.86 7.139 7.139 0 0 1 1.843-.25 7.3 7.3 0 0 1 1.328.141 4.27 4.27 0 0 1 1.461.555c.474.281.867.706 1.18 1.274.312.567.468 1.328.468 2.28V27h-1.843v-1.625h-.094c-.125.26-.333.54-.625.836-.292.297-.68.55-1.164.758-.484.208-1.076.312-1.774.312Zm.282-1.656c.729 0 1.343-.143 1.843-.43.506-.286.886-.656 1.141-1.11.26-.452.39-.929.39-1.429V20.97c-.077.093-.25.18-.515.258-.26.072-.562.138-.906.195-.339.052-.67.099-.992.14-.318.037-.576.068-.774.094a7.064 7.064 0 0 0-1.344.305 2.318 2.318 0 0 0-1 .617c-.25.271-.375.64-.375 1.11 0 .64.237 1.125.711 1.453.48.323 1.086.484 1.82.484Zm13.459 1.625c-1.125 0-2.094-.266-2.907-.797-.812-.531-1.437-1.263-1.875-2.195-.437-.932-.656-1.998-.656-3.195 0-1.22.224-2.295.672-3.227.453-.938 1.083-1.67 1.89-2.195.813-.532 1.761-.797 2.844-.797.844 0 1.605.156 2.282.469.677.312 1.231.75 1.664 1.312.432.563.7 1.219.804 1.969h-1.843c-.141-.547-.454-1.032-.938-1.453-.479-.427-1.125-.641-1.937-.641-.72 0-1.35.188-1.891.563-.536.37-.956.893-1.258 1.57-.297.672-.445 1.46-.445 2.367 0 .927.146 1.734.437 2.422.297.687.714 1.221 1.25 1.601.542.38 1.178.57 1.907.57.479 0 .914-.083 1.304-.25a2.69 2.69 0 0 0 .992-.718c.271-.313.464-.688.579-1.125h1.843a4.271 4.271 0 0 1-.773 1.914 4.322 4.322 0 0 1-1.617 1.344c-.667.328-1.443.492-2.328.492Zm9.258-7.469V27h-1.844V11h1.844v5.875h.156a3.393 3.393 0 0 1 1.265-1.477c.568-.37 1.323-.554 2.266-.554.818 0 1.534.164 2.148.492.615.323 1.092.82 1.43 1.492.344.667.516 1.516.516 2.547V27h-1.844v-7.5c0-.953-.247-1.69-.742-2.21-.49-.527-1.17-.79-2.04-.79-.603 0-1.145.128-1.624.383A2.798 2.798 0 0 0 53.803 18c-.271.49-.406 1.083-.406 1.781Z"/>
  <path fill="#176B87" d="M64.237 6.636h3.729l6.483 15.83h.239l6.483-15.83h3.728V27h-2.923V12.264h-.19L75.782 26.97h-2.426L67.35 12.254h-.189V27h-2.923V6.636ZM95.71 27.308c-1.505 0-2.8-.321-3.888-.964-1.08-.65-1.916-1.561-2.506-2.735-.583-1.18-.875-2.562-.875-4.146 0-1.564.292-2.943.875-4.136.59-1.194 1.412-2.125 2.466-2.794 1.06-.67 2.3-1.005 3.72-1.005.86 0 1.696.143 2.505.428a6.063 6.063 0 0 1 2.177 1.342c.643.61 1.15 1.402 1.522 2.377.371.967.556 2.144.556 3.53v1.054h-12.14V18.03h9.227c0-.782-.159-1.475-.477-2.078a3.609 3.609 0 0 0-1.343-1.442c-.57-.351-1.24-.527-2.008-.527-.835 0-1.564.206-2.188.617a4.137 4.137 0 0 0-1.431 1.59 4.593 4.593 0 0 0-.498 2.119v1.74c0 1.02.18 1.889.537 2.605.365.716.872 1.263 1.522 1.64.65.372 1.408.557 2.277.557.563 0 1.077-.08 1.54-.238a3.325 3.325 0 0 0 1.204-.736c.338-.325.597-.726.776-1.203l2.814.507a5.097 5.097 0 0 1-1.214 2.177c-.576.617-1.302 1.097-2.177 1.442-.869.338-1.86.507-2.973.507Z"/>
</svg>
