<svg xmlns="http://www.w3.org/2000/svg" width="568" height="322" fill="none" viewBox="0 0 568 322">
  <g clip-path="url(#a)">
    <path fill="#F7BD3D" d="M506.338 173.637h25.507v27.236c0 7.035-5.714 12.745-12.754 12.745-7.039 0-12.753-5.71-12.753-12.745v-27.236Z"/>
    <path fill="#181828" d="M519.226 214.734c-7.611 0-13.769-6.164-13.778-13.769v-27.228a1.02 1.02 0 0 1 1.007-1.023h25.524c.562 0 1.024.462 1.024 1.023v27.228c-.009 7.597-6.176 13.76-13.777 13.769Zm-11.747-39.982v26.213c0 6.482 5.261 11.739 11.747 11.739 6.485 0 11.746-5.257 11.746-11.739v-26.213h-23.493Z"/>
    <path fill="#F7BD3D" d="M491.008 141.63a51.184 51.184 0 0 0-10.069-18.381c9.23-3.774 19.559-2.7 27.161 3.824"/>
    <path fill="#fff" d="M504.282 132.087c-2.039-6.75-16.202-8.553-24.291-7.849 9.23-3.773 19.559-2.7 27.16 3.824" opacity=".48"/>
    <path fill="#D39021" d="M482.072 122.578c.369.428-1.149.998-.789 1.451 8.475-2.935 17.696-2.055 24.761 3.446l1.309-.956c-7.56-6.49-15.984-7.723-25.281-3.941Z"/>
    <path fill="#181828" d="m495.665 137.848-4.85 3.866a51.236 51.236 0 0 0-9.397-18.708 51.115 51.115 0 0 1 14.247 14.842Z"/>
    <path fill="#181828" d="M491.83 133.328a.814.814 0 0 1-.671-.369c-4.12-6.75-9.918-8.117-10.01-8.117a.78.78 0 0 1-.596-.897.837.837 0 0 1 .907-.596c.26.059 6.536 1.543 11 8.839a.77.77 0 0 1-.252 1.065.858.858 0 0 1-.378.075Z"/>
    <path fill="#fff" d="M493.987 125.731a6.087 6.087 0 0 0-2.207-.52.241.241 0 0 1-.243-.26.264.264 0 0 1 .26-.243c.83.033 1.636.218 2.4.545.134.059.193.21.134.344a.258.258 0 0 1-.344.134Z"/>
    <path fill="#fff" d="M489.187 124.499c.01-.5-.489-.915-1.115-.927-.625-.012-1.14.383-1.15.883-.009.5.49.915 1.115.928.626.012 1.141-.384 1.15-.884Z" opacity=".61"/>
    <path fill="#181828" d="M490.538 142.653c-.453 0-.847-.294-.973-.73a49.997 49.997 0 0 0-9.834-18.012 1.02 1.02 0 0 1 .394-1.601c10.002-4.084 20.549-2.591 28.218 3.991.428.361.478 1.006.109 1.434a1.023 1.023 0 0 1-1.443.109c-6.713-5.778-15.942-7.287-24.803-4.142a51.927 51.927 0 0 1 9.314 17.609 1.021 1.021 0 0 1-.68 1.266.906.906 0 0 1-.293.076h-.009Z"/>
    <path fill="#113C47" d="M541.477 151.684a2.261 2.261 0 0 1-2.257-2.247v-12.755a2.251 2.251 0 0 1 2.257-2.255 2.25 2.25 0 0 1 2.257 2.255v12.763a2.247 2.247 0 0 1-2.231 2.264h-.017v-.025h-.009Zm0-18.591a2.251 2.251 0 0 1-2.257-2.255v-4.772a2.251 2.251 0 0 1 2.257-2.255 2.25 2.25 0 0 1 2.257 2.255v4.746a2.247 2.247 0 0 1-2.215 2.281h-.042Z" opacity=".2"/>
    <path fill="#F7BD3D" d="M545.505 134.561a50.81 50.81 0 0 1 10.018-18.381c-9.229-3.773-19.567-2.709-27.168 3.824"/>
    <path fill="#fff" d="M529.638 129.521c2.031-6.75 15.54-13.953 25.885-13.341-9.229-3.773-19.567-2.709-27.168 3.824" opacity=".48"/>
    <path fill="#fff" d="M528.673 125.278c2.031-6.75 18.804-12.075 27.161-8.788-9.23-3.765-19.559-2.7-27.161 3.832"/>
    <path fill="#181828" d="m542.249 126.679 4.313 6.154c1.804-6.817 4.917-11.739 9.305-17.24l.084-1.467c-5.689 3.924-10.043 6.699-13.702 12.553Z"/>
    <path fill="#F7BD3D" d="M516.322 119.677h5.136c16.437 0 29.761 13.307 29.769 29.734 0 16.436-13.316 29.752-29.753 29.76h-5.152c-16.437 0-29.761-13.307-29.769-29.734v-.017c0-16.427 13.324-29.743 29.761-29.743h.008Z"/>
    <path fill="#fff" d="M516.322 119.677h5.135c16.438 0 29.762 13.307 29.77 29.734-3.549-12.938-12.837-26.103-29.275-26.103h-5.126c-16.437 0-25.021 11.253-30.257 26.112 0-16.427 13.316-29.735 29.753-29.743Z"/>
    <path fill="#DF8A3A" d="M551.705 149.059c0 16.427-13.324 29.743-29.761 29.743h-5.118c-16.437 0-29.762-13.316-29.762-29.743 0-.637 0-1.274.059-1.903.999 15.68 14.038 27.881 29.762 27.848h5.143c15.699 0 28.704-12.184 29.703-27.848-.042.629-.026 1.266-.026 1.903Z"/>
    <path fill="#181828" d="M547.678 165.386c-6.217-1.468-5.764-.738-11.411-7.153 0 0-1.678 8.058 4.682 12.746l6.729-5.593Z"/>
    <path fill="#181828" d="M542.342 169.712s-4.875-.687-9.499-5.584c0 0-1.048 6.641 3.701 10.138l5.798-4.554Zm16.688-12.955a.832.832 0 0 1-.646-.352c-1.485-2.247-2.894-2.457-5.252-2.784a28.171 28.171 0 0 1-3.138-.579 28.244 28.244 0 0 0-4.506-.746.833.833 0 0 1-.705-.839.76.76 0 0 1 .814-.704h.025c1.603.126 3.197.394 4.758.78.982.243 1.972.428 2.978.553 2.392.344 4.456.629 6.31 3.455a.773.773 0 0 1-.21 1.082h-.008a.853.853 0 0 1-.428.134h.008Zm8.181 7.715a.79.79 0 0 1-.654-.353c-1.469-2.23-7.51-4.838-16.563-7.211a29.16 29.16 0 0 0-4.506-.738.788.788 0 0 1 .143-1.56c1.602.134 3.197.403 4.757.789 6.763 1.752 15.33 4.511 17.478 7.832a.776.776 0 0 1-.193 1.073s-.009 0-.017.008a.72.72 0 0 1-.445.16Zm-9.733 1.685h-.134a11.343 11.343 0 0 1-6.712-3.48 13.39 13.39 0 0 0-3.231-2.415 28.46 28.46 0 0 0-4.254-1.677.772.772 0 0 1-.503-.964.782.782 0 0 1 .973-.503 32.714 32.714 0 0 1 4.514 1.802 15.999 15.999 0 0 1 3.6 2.659c1.56 1.434 2.911 2.708 5.873 3.085a.782.782 0 0 1 .613.931.795.795 0 0 1-.73.629v-.059l-.009-.008Zm-78.477-9.4a.849.849 0 0 0 .655-.352c1.476-2.247 2.894-2.457 5.244-2.784a28.171 28.171 0 0 0 3.138-.579 28.244 28.244 0 0 1 4.506-.746.832.832 0 0 0 .704-.839.76.76 0 0 0-.814-.704h-.025a29.46 29.46 0 0 0-4.757.78 25.4 25.4 0 0 1-2.979.553c-2.391.344-4.455.629-6.31 3.455a.773.773 0 0 0 .21 1.082h.009a.85.85 0 0 0 .428.134h-.009Zm-8.181 7.715c.26 0 .512-.135.655-.353 1.468-2.23 7.509-4.838 16.563-7.211a29.16 29.16 0 0 1 4.506-.738.789.789 0 0 0-.143-1.56 30.398 30.398 0 0 0-4.758.789c-6.762 1.752-15.329 4.511-17.477 7.832a.776.776 0 0 0 .193 1.073s.008 0 .017.008c.126.101.285.16.444.16Zm9.733 1.685h.135a11.346 11.346 0 0 0 6.712-3.48 13.59 13.59 0 0 1 3.239-2.415 28.44 28.44 0 0 1 4.245-1.677.773.773 0 0 0 .504-.964.782.782 0 0 0-.973-.503 32.727 32.727 0 0 0-4.515 1.802 15.993 15.993 0 0 0-3.599 2.659c-1.561 1.434-2.903 2.708-5.873 3.085a.782.782 0 0 0-.613.931.795.795 0 0 0 .73.629v-.059l.008-.008Z"/>
    <path fill="#fff" d="M506.447 132.75h-.017c-5.51 0-9.976 4.463-9.976 9.97v4.352c0 5.506 4.466 9.97 9.976 9.97h.017c5.51 0 9.976-4.464 9.976-9.97v-4.352c0-5.507-4.466-9.97-9.976-9.97Z"/>
    <path fill="#181828" d="M506.212 153.042c4.073 0 7.375-3.3 7.375-7.371 0-4.07-3.302-7.37-7.375-7.37a7.373 7.373 0 0 0-7.375 7.37 7.373 7.373 0 0 0 7.375 7.371Z"/>
    <path fill="#fff" d="M508.301 150.678a1.863 1.863 0 1 0 0-3.725 1.863 1.863 0 0 0 0 3.725Z" opacity=".2"/>
    <path fill="#fff" d="M504.685 145.68c2.062 0 3.733-1.273 3.733-2.843s-1.671-2.842-3.733-2.842c-2.062 0-3.734 1.272-3.734 2.842s1.672 2.843 3.734 2.843Zm27.856-12.93h-.016c-5.51 0-9.977 4.463-9.977 9.97v4.352c0 5.506 4.467 9.97 9.977 9.97h.016c5.51 0 9.977-4.464 9.977-9.97v-4.352c0-5.507-4.467-9.97-9.977-9.97Z"/>
    <path fill="#181828" d="M532.306 153.042c4.074 0 7.376-3.3 7.376-7.371 0-4.07-3.302-7.37-7.376-7.37a7.373 7.373 0 0 0-7.375 7.37 7.373 7.373 0 0 0 7.375 7.371Z"/>
    <path fill="#fff" d="M534.396 150.678a1.862 1.862 0 1 0 0-3.725 1.862 1.862 0 0 0 0 3.725Z" opacity=".2"/>
    <path fill="#fff" d="M530.771 145.68c2.062 0 3.734-1.273 3.734-2.843s-1.672-2.842-3.734-2.842c-2.062 0-3.734 1.272-3.734 2.842s1.672 2.843 3.734 2.843ZM505.7 127.618a22.291 22.291 0 0 1 4.749-1.636 24.908 24.908 0 0 1 4.976-.578c.293 0 .528.226.537.52a.532.532 0 0 1-.495.528 24.835 24.835 0 0 0-4.708.839 27.263 27.263 0 0 0-4.472 1.61.694.694 0 0 1-.914-.353.684.684 0 0 1 .31-.922s.009 0 .017-.008Zm14.41-1.736c.009-.5-.49-.916-1.115-.928-.626-.012-1.141.384-1.15.884-.01.5.489.915 1.115.927.625.012 1.14-.383 1.15-.883Z"/>
    <path fill="#181828" d="M521.457 180.194h-5.135c-17.007.277-31.02-13.266-31.296-30.263-.277-16.997 13.274-31.001 30.281-31.277h6.15c17.008-.277 31.02 13.265 31.297 30.263.277 16.997-13.274 31-30.281 31.277h-1.016Zm-5.135-59.536c-15.875 0-28.746 12.863-28.746 28.728 0 15.865 12.871 28.729 28.746 28.729h5.135c15.875 0 28.738-12.872 28.738-28.737 0-15.857-12.871-28.712-28.738-28.72h-5.135Z"/>
    <path fill="#181828" d="M547.326 134.351h-.235a1.017 1.017 0 0 1-.764-1.216v-.008a48.307 48.307 0 0 1 7.501-17.542c-9.07-2.566-18.14-.478-24.483 5.727a1.032 1.032 0 0 1-1.452.017 1.023 1.023 0 0 1-.017-1.451c0-.008.017-.017.025-.025 7.225-7.052 17.621-9.224 27.907-5.795.537.193.823.789.63 1.334a.93.93 0 0 1-.134.251c-3.835 5.124-6.302 10.658-7.997 17.945a1.021 1.021 0 0 1-.99.763h.009Z"/>
    <path fill="#DF8A3A" d="M524.327 172.84c1.2 0 2.173-.364 2.173-.813 0-.449-.973-.814-2.173-.814-1.2 0-2.173.365-2.173.814 0 .449.973.813 2.173.813Zm-4.111.201a.839.839 0 1 0 0-1.677.839.839 0 0 0 0 1.677Z"/>
    <path fill="#fff" d="M540.864 122.245c.73-.421 1.155-1.052.949-1.409-.206-.357-.965-.305-1.696.117-.73.421-1.155 1.052-.949 1.409.206.357.966.305 1.696-.117Zm1.385 1.063a.344.344 0 1 0 0-.688.344.344 0 0 0 0 .688Z"/>
    <path fill="#181828" d="M518.303 155.524c-.806 0-1.469.638-1.469 1.451 0 .361.126.704.361.973.663.729 1.619 1.601 2.685 1.601s2.022-.838 2.677-1.601a1.453 1.453 0 0 0-.135-2.063 1.564 1.564 0 0 0-.923-.361h-3.196Z"/>
    <path fill="#C0DBE2" d="M335.547 271.511h-20.028v1.82h20.028v-1.82Zm1.947-21.03-.176 2.046h-24.526l-.176-2.046h24.878Z"/>
    <path fill="#181828" d="M332.703 290.731H317.86a2.675 2.675 0 0 1-2.66-2.449l-3.196-38.64a.845.845 0 0 1 .763-.914h24.954a.83.83 0 0 1 .621.269c.167.176.243.41.226.645l-2.139 25.458a.845.845 0 0 1-.907.772.846.846 0 0 1-.772-.906l2.031-24.552h-23.007l3.13 37.734a.977.977 0 0 0 .973.897h14.843a.977.977 0 0 0 .973-.897l.781-9.392a.835.835 0 0 1 .897-.771h.017a.836.836 0 0 1 .772.897v.017l-.78 9.383a2.69 2.69 0 0 1-2.677 2.449Z"/>
    <path fill="#fff" d="M341.673 245.927h-32.774v3.942h32.774v-3.942Z"/>
    <path fill="#181828" d="M339.692 250.858h-28.821a2.788 2.788 0 0 1-2.786-2.784 2.789 2.789 0 0 1 2.786-2.784h28.821a2.789 2.789 0 0 1 2.786 2.784 2.788 2.788 0 0 1-2.786 2.784Zm-28.821-3.941a1.16 1.16 0 0 0-1.158 1.157c0 .637.52 1.157 1.158 1.157h28.821a1.16 1.16 0 0 0 1.158-1.157 1.16 1.16 0 0 0-1.158-1.157h-28.821Z"/>
    <path fill="#181828" d="M313.606 246.682a.602.602 0 0 1-.57-.637c0-.185.302-4.511 4.027-5.929a.613.613 0 0 1 .839.571v5.031a.602.602 0 0 1-.604.604.602.602 0 0 1-.604-.604v-4.059c-2.24 1.426-2.433 4.428-2.442 4.461a.594.594 0 0 1-.629.562h-.017Z"/>
    <path fill="#fff" d="M329.036 255.99a.168.168 0 1 0 0-.335.168.168 0 0 0 0 .335Z"/>
    <path fill="#C0DBE2" d="M330.807 254.346a1.308 1.308 0 1 0 .002-2.616 1.308 1.308 0 0 0-.002 2.616Zm2.584 1.309a.37.37 0 1 0 0-.739.37.37 0 0 0 0 .739Zm.999-2.164a.344.344 0 1 0 0-.688.344.344 0 0 0 0 .688Zm-6.008-.176a.822.822 0 1 0 0-1.644.822.822 0 0 0 0 1.644Zm2.677 4.662a.31.31 0 1 0 0-.62.31.31 0 0 0 0 .62Z"/>
    <path fill="#F7B14B" d="m311.215 256.502 1.065 13.944h26.355l1.217-13.944h-28.637Z"/>
    <path fill="#181828" d="M338.484 271.746h-26.388a.842.842 0 0 1-.839-.78l-1.057-13.945a.848.848 0 0 1 .772-.905h28.695c.235 0 .47.092.63.268a.838.838 0 0 1 .218.646l-1.217 13.945a.836.836 0 0 1-.814.771Zm-25.574-1.677h24.802l1.066-12.259h-26.8l.932 12.259Z"/>
    <path fill="#181828" d="M319.689 260.988h-7.551a.402.402 0 0 1-.336-.445.391.391 0 0 1 .336-.335h7.551a.385.385 0 0 1 .445.335.392.392 0 0 1-.336.445h-.117.008Z"/>
    <path fill="#fff" d="M319.051 267.361c1.206-1.205 1.416-2.95.469-3.896-.947-.946-2.692-.737-3.898.469-1.206 1.205-1.415 2.949-.469 3.895.947.947 2.693.737 3.898-.468Zm3.801-3.024c.472-.472.552-1.157.178-1.53-.373-.373-1.059-.294-1.531.178-.471.471-.551 1.156-.178 1.53.374.373 1.059.293 1.531-.178Z" opacity=".7"/>
    <path fill="#91DCDC" d="M270.571 275.008h-94.293v14.641h94.293v-14.641Z"/>
    <path fill="#5BA3BA" d="M270.571 275.008h-94.293v3.455h94.293v-3.455Z"/>
    <path fill="#181828" d="M270.579 290.873h-94.301a1.217 1.217 0 0 1-1.217-1.216v-14.615c0-.671.545-1.216 1.217-1.216h94.301a1.217 1.217 0 0 1 1.242 1.191v14.666a1.217 1.217 0 0 1-1.242 1.19Zm-93.076-2.415h91.851v-12.226h-91.851v12.226Z"/>
    <path fill="#F7B14B" d="M97.037 296.525h433.541c0 14.004-11.361 25.358-25.373 25.358H122.418c-14.012 0-25.373-11.354-25.373-25.358h-.008Z"/>
    <path fill="#D17E1C" d="M529.907 302.127a23.452 23.452 0 0 1-1.032 3.354H98.749a23.49 23.49 0 0 1-1.032-3.354h432.19Z"/>
    <path fill="#181828" d="M505.205 322H122.418c-14.54-.017-26.33-11.798-26.346-26.33a.97.97 0 0 1 1.057-.881c.47.042.84.411.881.881.017 13.467 10.933 24.376 24.408 24.393h382.787c13.475-.017 24.391-10.926 24.408-24.393a.96.96 0 0 1 .965-.965.96.96 0 0 1 .965.965c-.017 14.54-11.797 26.322-26.338 26.338V322Z"/>
    <path fill="#6F6372" d="M543.156 185.293h-52.601c-7.507 0-13.593 6.081-13.593 13.584v76.928c0 7.502 6.086 13.584 13.593 13.584h52.601c7.507 0 13.592-6.082 13.592-13.584v-76.928c0-7.503-6.085-13.584-13.592-13.584Z"/>
    <path fill="#63456B" d="M499.894 288.777h-9.347c-7.502 0-13.585-6.079-13.585-13.576v-76.928c0-7.496 6.075-13.576 13.576-13.584h9.356c-7.51 0-13.593 6.079-13.593 13.584v76.928c0 7.497 6.083 13.576 13.584 13.576h.009Z"/>
    <path fill="#181828" d="M516.851 221.643c4.708 0 8.525-3.814 8.525-8.519s-3.817-8.52-8.525-8.52-8.525 3.815-8.525 8.52 3.817 8.519 8.525 8.519Z" opacity=".5"/>
    <path fill="#181828" d="M516.851 219.153a6.03 6.03 0 0 0 6.033-6.029 6.03 6.03 0 0 0-6.033-6.029 6.03 6.03 0 0 0-6.033 6.029 6.03 6.03 0 0 0 6.033 6.029Z" opacity=".5"/>
    <path fill="#181828" d="M516.826 222.666c-5.269 0-9.549-4.276-9.549-9.542s4.28-9.543 9.549-9.543a9.54 9.54 0 0 1 9.548 9.543c-.008 5.266-4.279 9.534-9.548 9.542Zm0-17.047c-4.145.025-7.493 3.404-7.468 7.547a7.511 7.511 0 0 0 7.552 7.463c4.128-.025 7.467-3.38 7.467-7.505a7.551 7.551 0 0 0-7.551-7.505Z"/>
    <path fill="#181828" d="M516.851 268.208c10.26 0 18.577-8.312 18.577-18.566 0-10.253-8.317-18.565-18.577-18.565-10.26 0-18.577 8.312-18.577 18.565 0 10.254 8.317 18.566 18.577 18.566Z" opacity=".5"/>
    <path fill="#181828" d="M516.851 262.765c7.252 0 13.131-5.875 13.131-13.123 0-7.248-5.879-13.123-13.131-13.123-7.252 0-13.131 5.875-13.131 13.123 0 7.248 5.879 13.123 13.131 13.123Z" opacity=".5"/>
    <path fill="#181828" d="M516.826 269.507c-10.975 0-19.877-8.897-19.877-19.865 0-10.968 8.902-19.865 19.877-19.865s19.877 8.897 19.877 19.865c-.017 10.968-8.902 19.848-19.877 19.865Zm0-37.13c-9.54 0-17.276 7.731-17.276 17.265s7.736 17.266 17.276 17.266 17.276-7.732 17.276-17.266c-.008-9.534-7.736-17.257-17.276-17.265Zm-21.623-34.087a3.135 3.135 0 0 1-3.138-3.119 3.135 3.135 0 0 1 3.122-3.137 3.135 3.135 0 0 1 3.138 3.12v.017c0 1.719-1.402 3.111-3.122 3.119Zm0-4.687c-.864 0-1.569.695-1.577 1.559 0 .864.696 1.568 1.561 1.577.864 0 1.569-.696 1.577-1.56a1.57 1.57 0 0 0-1.561-1.576Zm43.304 4.687a3.134 3.134 0 0 1-3.138-3.119 3.135 3.135 0 0 1 3.121-3.137 3.134 3.134 0 0 1 3.138 3.12v.017a3.13 3.13 0 0 1-3.121 3.119Zm0-4.687c-.864 0-1.569.695-1.577 1.559 0 .864.696 1.568 1.56 1.577.865 0 1.569-.696 1.578-1.56 0-.872-.697-1.568-1.561-1.576Z"/>
    <path fill="#F04D6A" d="M516.851 195.791a2.97 2.97 0 1 0 .001-5.939 2.97 2.97 0 0 0-.001 5.939Z"/>
    <path fill="#181828" d="M516.826 196.571a3.742 3.742 0 0 1-3.742-3.757 3.743 3.743 0 0 1 3.759-3.74 3.752 3.752 0 0 1 3.742 3.749 3.754 3.754 0 0 1-3.751 3.748h-.008Zm0-5.937c-1.208 0-2.19.981-2.19 2.189a2.19 2.19 0 0 0 4.38 0 2.191 2.191 0 0 0-2.19-2.189ZM495.203 283.1c-1.72 0-3.121-1.4-3.121-3.119a3.126 3.126 0 0 1 3.121-3.12 3.126 3.126 0 0 1 3.122 3.12c0 1.719-1.402 3.111-3.122 3.119Zm0-4.679c-.864 0-1.56.696-1.56 1.56 0 .863.696 1.559 1.56 1.559.865 0 1.561-.696 1.561-1.559a1.557 1.557 0 0 0-1.536-1.585h-.025v.025Zm43.304 4.679c-1.72 0-3.121-1.4-3.121-3.119a3.126 3.126 0 0 1 3.121-3.12 3.126 3.126 0 0 1 3.121 3.12 3.13 3.13 0 0 1-3.121 3.119Zm0-4.679c-.864 0-1.561.696-1.561 1.56 0 .863.697 1.559 1.561 1.559s1.561-.696 1.561-1.559a1.559 1.559 0 0 0-1.536-1.585h-.025v.025Z"/>
    <path fill="#63456B" d="M486.603 227.639c1.007 0 1.829.822 1.829 1.828v12.352a1.833 1.833 0 0 1-1.829 1.828 1.833 1.833 0 0 1-1.829-1.828v-12.352c0-1.006.822-1.828 1.829-1.828Z"/>
    <path fill="#928F93" d="M553.82 207.975c1.007 0 1.829.822 1.829 1.828v12.352a1.833 1.833 0 0 1-1.829 1.828 1.833 1.833 0 0 1-1.829-1.828v-12.352c0-1.006.822-1.828 1.829-1.828Zm.47 50.464h-.94c-.751 0-1.359.608-1.359 1.358v13.291c0 .75.608 1.358 1.359 1.358h.94c.75 0 1.359-.608 1.359-1.358v-13.291c0-.75-.609-1.358-1.359-1.358Z"/>
    <path fill="#181828" d="M543.156 290.689h-52.601c-8.223-.009-14.885-6.667-14.893-14.884v-76.928c.008-8.218 6.67-14.876 14.893-14.884h52.601c8.222.008 14.884 6.666 14.893 14.884v76.928c-.009 8.217-6.671 14.875-14.893 14.884Zm-52.601-104.088c-6.796-.017-12.309 5.475-12.326 12.268v76.936c0 6.784 5.504 12.276 12.292 12.284h52.601c6.788 0 12.292-5.5 12.301-12.284v-76.928c-.009-6.776-5.505-12.268-12.284-12.276h-52.584Z"/>
    <path fill="#6F6372" d="M144.209 185.293h-52.6c-7.508 0-13.593 6.081-13.593 13.584v76.928c0 7.502 6.085 13.584 13.592 13.584h52.601c7.507 0 13.593-6.082 13.593-13.584v-76.928c0-7.503-6.086-13.584-13.593-13.584Z"/>
    <path fill="#63456B" d="M100.947 288.777h-9.339c-7.5.017-13.592-6.054-13.61-13.551v-76.953c0-7.505 6.084-13.584 13.593-13.584h9.339c-7.51 0-13.593 6.079-13.593 13.584v76.928c0 7.497 6.084 13.576 13.585 13.576h.025Z"/>
    <path fill="#181828" d="M117.913 221.643c4.708 0 8.525-3.814 8.525-8.519s-3.817-8.52-8.525-8.52-8.525 3.815-8.525 8.52 3.817 8.519 8.525 8.519Z" opacity=".5"/>
    <path fill="#181828" d="M117.913 219.153a6.03 6.03 0 0 0 6.033-6.029 6.03 6.03 0 0 0-6.033-6.029 6.03 6.03 0 0 0-6.033 6.029 6.03 6.03 0 0 0 6.033 6.029Z" opacity=".5"/>
    <path fill="#181828" d="M117.913 222.666c-5.27-.025-9.532-4.31-9.507-9.584.025-5.266 4.313-9.526 9.591-9.501 5.261.025 9.506 4.285 9.506 9.543 0 5.274-4.287 9.551-9.565 9.542h-.025Zm0-17.047c-4.145 0-7.51 3.354-7.518 7.496-.009 4.143 3.356 7.505 7.501 7.514 4.145.008 7.51-3.354 7.518-7.497-.025-4.142-3.365-7.488-7.501-7.513Z"/>
    <path fill="#181828" d="M117.913 268.208c10.259 0 18.576-8.312 18.576-18.566 0-10.253-8.317-18.565-18.576-18.565-10.26 0-18.577 8.312-18.577 18.565 0 10.254 8.317 18.566 18.577 18.566Z" opacity=".5"/>
    <path fill="#181828" d="M117.913 262.765c7.252 0 13.131-5.875 13.131-13.123 0-7.248-5.879-13.123-13.131-13.123-7.252 0-13.132 5.875-13.132 13.123 0 7.248 5.88 13.123 13.132 13.123Z" opacity=".5"/>
    <path fill="#181828" d="M117.913 269.507c-10.975 0-19.877-8.897-19.877-19.865 0-10.968 8.902-19.865 19.877-19.865s19.877 8.897 19.877 19.865c-.017 10.968-8.902 19.848-19.877 19.865Zm0-37.13c-9.54 0-17.276 7.723-17.285 17.257 0 9.534 7.728 17.265 17.268 17.274 9.54 0 17.276-7.723 17.285-17.257-.009-9.535-7.737-17.258-17.268-17.274ZM96.257 198.29a3.134 3.134 0 0 1-3.138-3.119 3.135 3.135 0 0 1 3.12-3.137 3.134 3.134 0 0 1 3.139 3.12v.017a3.13 3.13 0 0 1-3.121 3.119Zm0-4.687c-.865 0-1.57.695-1.578 1.559a1.572 1.572 0 0 0 1.56 1.577c.865 0 1.57-.696 1.578-1.56a1.57 1.57 0 0 0-1.56-1.568v-.008Zm43.303 4.687a3.128 3.128 0 1 1 0-6.256 3.13 3.13 0 0 1 3.13 3.128 3.122 3.122 0 0 1-3.13 3.12v.008Zm0-4.687c-.864 0-1.569.695-1.577 1.559a1.572 1.572 0 0 0 1.561 1.577c.864 0 1.569-.696 1.577-1.56a1.57 1.57 0 0 0-1.561-1.568v-.008ZM96.257 283.1c-1.72 0-3.122-1.4-3.122-3.119a3.126 3.126 0 0 1 3.122-3.12 3.126 3.126 0 0 1 3.121 3.12 3.13 3.13 0 0 1-3.121 3.119Zm0-4.679c-.865 0-1.561.696-1.561 1.56 0 .863.696 1.559 1.56 1.559.865 0 1.561-.696 1.561-1.559a1.557 1.557 0 0 0-1.535-1.585h-.025v.025Zm43.303 4.679a3.119 3.119 0 1 1 .017-6.239 3.119 3.119 0 1 1-.017 6.239Zm0-4.679c-.864 0-1.56.696-1.56 1.56 0 .863.696 1.559 1.56 1.559.865 0 1.561-.696 1.561-1.559a1.557 1.557 0 0 0-1.535-1.585h-.026v.025Z"/>
    <path fill="#63456B" d="M87.656 227.639c1.007 0 1.83.822 1.83 1.828v12.352a1.833 1.833 0 0 1-1.83 1.828 1.833 1.833 0 0 1-1.829-1.828v-12.352c0-1.006.823-1.828 1.83-1.828Z"/>
    <path fill="#928F93" d="M155.343 207.975h-.94a1.36 1.36 0 0 0-1.359 1.359v13.29a1.36 1.36 0 0 0 1.359 1.359h.94c.751 0 1.359-.608 1.359-1.359v-13.29c0-.751-.608-1.359-1.359-1.359Zm0 50.464h-.94c-.75 0-1.359.608-1.359 1.358v13.291c0 .75.609 1.358 1.359 1.358h.94c.751 0 1.359-.608 1.359-1.358v-13.291c0-.75-.608-1.358-1.359-1.358Z"/>
    <path fill="#181828" d="M144.209 290.689h-52.6c-8.224-.009-14.886-6.667-14.894-14.884v-76.928c.008-8.218 6.67-14.876 14.893-14.884h52.601c8.223.008 14.885 6.666 14.893 14.884v76.928c-.008 8.217-6.67 14.875-14.893 14.884Zm-52.6-104.088c-6.78.008-12.276 5.5-12.284 12.276v76.928c0 6.775 5.504 12.276 12.283 12.284h52.601c6.788 0 12.284-5.5 12.292-12.284v-76.928c-.008-6.776-5.513-12.268-12.292-12.276h-52.6Z"/>
    <path fill="#83C3DB" d="M277.871 288.383c-.554-8.318 5.739-15.513 14.062-16.067 8.324-.553 15.523 5.736 16.077 14.054.042.671.042 1.342 0 2.013"/>
    <path fill="#C0F3FF" d="M295.659 273.423c-7.569.923-13.266 7.338-13.274 14.96h-3.6c0-8.335 6.763-15.094 15.103-15.094.596 0 1.183.05 1.771.134Z"/>
    <path fill="#181828" d="M308.01 289.423c-.571 0-1.032-.47-1.032-1.04 0-2.717-.789-5.375-2.274-7.648a1.043 1.043 0 0 1 .302-1.442 1.044 1.044 0 0 1 1.443.302 16.034 16.034 0 0 1 2.601 8.788c0 .57-.47 1.04-1.04 1.04Zm-30.139 0c-.571 0-1.041-.47-1.041-1.04-.008-8.889 7.199-16.109 16.093-16.117 3.667 0 7.233 1.241 10.094 3.539.47.335.579.981.252 1.45-.327.47-.982.579-1.452.252-.033-.025-.067-.05-.1-.084a13.919 13.919 0 0 0-8.777-3.077c-7.753.008-14.029 6.28-14.037 14.028 0 .571-.462 1.04-1.032 1.049Z"/>
    <path fill="#E89176" d="M410.215 45.592c-.235 12.007-10.169 21.558-22.184 21.324-11.688-.227-21.103-9.644-21.338-21.324 0-12.017 9.742-22.792 21.757-22.792s21.765 10.742 21.765 22.792Z"/>
    <path fill="#CE7057" d="M409.141 46.262a21.92 21.92 0 0 1-.629 4.671h-.973a43.204 43.204 0 0 1-30.643-12.687 43.7 43.7 0 0 1-5.722-7.06 21.008 21.008 0 0 1 1.946-1.92 42.845 42.845 0 0 0 3.776 4.31 43.204 43.204 0 0 0 30.643 12.686h1.602Z"/>
    <path fill="#181828" d="M388.45 68.484a22.886 22.886 0 0 1-20.137-12.033 1.143 1.143 0 1 1 2.013-1.082c5.412 10.02 17.923 13.752 27.949 8.343a20.606 20.606 0 0 0 10.824-18.12c0-11.74-9.448-21.652-20.624-21.652-11.176 0-20.615 9.912-20.615 21.652a20.9 20.9 0 0 0 .696 5.341 1.15 1.15 0 0 1-.805 1.4 1.15 1.15 0 0 1-1.402-.813 22.83 22.83 0 0 1-.78-5.928c0-12.981 10.488-23.94 22.906-23.94s22.915 10.959 22.915 23.94c-.017 12.645-10.287 22.892-22.94 22.892Z"/>
    <path fill="#E89176" d="M437.854 60.727c0 12.017 9.741 21.752 21.765 21.752 12.024 0 21.765-9.736 21.765-21.752 0-12.016-9.741-22.791-21.765-22.791-12.024 0-21.765 10.775-21.765 22.791Z"/>
    <path fill="#CE7057" d="M438.928 61.398a21.42 21.42 0 0 0 .637 4.67h.974a43.377 43.377 0 0 0 36.356-19.747 21.57 21.57 0 0 0-1.938-1.878c-1.166 1.518-4.12.402-5.471 1.752-7.837 7.84-16.982 15.245-28.947 15.245l-1.611-.042Z"/>
    <path fill="#181828" d="M459.619 83.62c-12.645-.017-22.89-10.256-22.906-22.893 0-12.98 10.488-23.94 22.906-23.94s22.906 10.96 22.906 23.94c0 2.004-.26 4-.772 5.937-.21.604-.856.922-1.46.713a1.149 1.149 0 0 1-.755-1.308c.47-1.745.705-3.539.705-5.342 0-11.74-9.448-21.65-20.624-21.65-11.176 0-20.616 9.91-20.616 21.65 0 11.388 9.247 20.603 20.641 20.595 7.577 0 14.541-4.16 18.132-10.817.302-.554.99-.763 1.552-.47.554.302.764.99.462 1.551a22.913 22.913 0 0 1-20.171 12.033Z"/>
    <path fill="#FFBB59" d="m377.685 283.98-43.715 9.359v-79.662c0-12.066 9.775-21.844 21.849-21.852 12.074 0 21.858 9.777 21.858 21.844v70.311h.008Z"/>
    <path fill="#FFDBAB" d="M357.959 191.951c-11.017 1.274-19.315 10.607-19.299 21.693v78.596l-5.16 1.099v-79.662c0-12.066 9.784-21.844 21.858-21.844h.008c.864-.017 1.728.025 2.593.118Z"/>
    <path fill="#181828" d="M333.97 294.328c-.235 0-.461-.075-.646-.226a1.037 1.037 0 0 1-.378-.797v-79.661c0-12.629 10.245-22.867 22.881-22.867 12.637 0 22.882 10.238 22.882 22.867v70.337c0 .494-.353.905-.839.997l-43.69 9.35h-.21Zm21.857-101.547c-11.503.016-20.825 9.333-20.833 20.829v78.437l41.709-8.888v-69.515c-.008-11.514-9.355-20.838-20.876-20.83v-.033Z"/>
    <path fill="#FFBB59" d="M430.051 166.87c19.516 0 35.332 15.806 35.332 35.311v93.497H345.742v-44.552c0-46.53 37.749-84.256 84.309-84.256Z"/>
    <path fill="#F4A031" d="M465.266 202.843v89.288h-8.852v-80.5c.025-4.863 3.985-8.796 8.852-8.788Z"/>
    <path fill="#FFDBAB" d="M434.061 167.054c-44.243 3.019-78.586 39.756-78.594 84.072v44.552h-9.398v-44.552c0-46.539 37.758-84.265 84.326-84.256h.008c1.225 0 2.442.059 3.658.184Z"/>
    <path fill="#181828" d="M465.383 296.701H345.742a1.019 1.019 0 0 1-1.024-1.006v-44.569c.051-47.075 38.228-85.229 85.333-85.279 20.07.017 36.331 16.267 36.356 36.325v93.506c0 .562-.462 1.023-1.024 1.023Zm-118.617-2.046H464.36v-92.483c-.026-18.925-15.372-34.262-34.309-34.288-45.981.059-83.235 37.29-83.285 83.242v43.529Z"/>
    <path fill="#FFBB59" d="M463.093 190.181h-.009c-9.685 0-17.536 7.847-17.536 17.526v61.456c0 9.68 7.851 17.526 17.536 17.526h.009c9.685 0 17.536-7.846 17.536-17.526v-61.456c0-9.679-7.851-17.526-17.536-17.526Z"/>
    <path fill="#FFDBAB" d="M466.113 286.597c-.604.058-1.208.092-1.829.092-9.683 0-17.528-7.84-17.536-17.517v-61.465c0-9.677 7.853-17.526 17.536-17.526.621 0 1.225 0 1.829.092-8.927.94-15.715 8.461-15.715 17.434v61.465c.008 8.972 6.788 16.486 15.715 17.425Z"/>
    <path fill="#181828" d="M463.126 287.712c-10.253 0-18.577-8.293-18.593-18.54v-61.465c0-10.247 8.323-18.54 18.576-18.532 10.237 0 18.544 8.302 18.544 18.532v61.465c-.017 10.222-8.299 18.506-18.527 18.54Zm0-96.525c-9.12.009-16.504 7.388-16.521 16.503v61.482c0 9.115 7.401 16.511 16.521 16.511 9.121 0 16.521-7.396 16.521-16.511v-61.465c0-9.115-7.4-16.511-16.521-16.52Z"/>
    <path fill="#FFBB59" d="M485.017 276.274c0 8.201-6.653 14.851-14.859 14.851H403.31c-8.206 0-14.86-6.65-14.86-14.851s6.654-14.842 14.86-14.842h66.848c8.206 0 14.859 6.65 14.859 14.842Z"/>
    <path fill="#181828" d="M470.158 292.14H403.31c-8.768-.202-15.716-7.472-15.514-16.235.193-8.477 7.031-15.311 15.514-15.504h66.848c8.768-.202 16.042 6.742 16.244 15.504.201 8.763-6.746 16.033-15.515 16.235h-.729Zm-66.848-29.676c-7.644 0-13.845 6.196-13.845 13.835 0 7.64 6.201 13.836 13.845 13.836h66.848c7.643 0 13.844-6.196 13.844-13.836 0-7.639-6.201-13.835-13.844-13.835H403.31Z"/>
    <path fill="#FDC6A2" d="M384.246 291.402c10.455 0 18.93-6.615 18.93-14.775 0-8.161-8.475-14.776-18.93-14.776-10.454 0-18.929 6.615-18.929 14.776 0 8.16 8.475 14.775 18.929 14.775Z"/>
    <path fill="#E89176" d="M386.378 290.974a1.28 1.28 0 0 1-1.141-1.409c.058-.528.436-.964.948-1.107a22.933 22.933 0 0 0 6.544-2.247c4.154-2.23 6.369-5.367 6.579-9.316a1.267 1.267 0 0 1 1.317-1.216h.033a1.296 1.296 0 0 1 1.217 1.35c-.26 4.864-3.021 8.838-7.996 11.48a25.49 25.49 0 0 1-7.317 2.515l-.184-.05Z" opacity=".62"/>
    <path fill="#181828" d="M384.255 292.341c-5.504 0-10.983-1.778-14.893-5.249-3.483-3.103-5.261-7.103-4.993-11.254.269-4.335 2.702-8.276 6.838-11.11a.97.97 0 0 1 1.343.251.968.968 0 0 1-.252 1.342c-3.633 2.515-5.772 5.87-6.007 9.635-.227 3.555 1.325 6.993 4.354 9.693 6.579 5.87 18.032 6.423 25.533 1.283 3.633-2.515 5.764-5.912 6.007-9.635.219-3.555-1.325-6.993-4.363-9.693a.967.967 0 0 1-.084-1.359.967.967 0 0 1 1.36-.083c3.49 3.102 5.261 7.102 5.034 11.253-.277 4.335-2.702 8.276-6.838 11.11a23.178 23.178 0 0 1-13.048 3.816h.009Z"/>
    <path fill="#FFDBC7" d="M380.999 278.429c4.852 0 8.785-2.38 8.785-5.316s-3.933-5.316-8.785-5.316-8.785 2.38-8.785 5.316 3.933 5.316 8.785 5.316Z"/>
    <path fill="#FFE8DC" d="M359.276 260.703c.847 0 1.527.679 1.527 1.526v13.4c0 .847-.68 1.526-1.527 1.526a1.521 1.521 0 0 1-1.527-1.526v-13.4c0-.847.68-1.526 1.527-1.526Zm95.812-48.485c.847 0 1.527.679 1.527 1.526v13.4c0 .847-.68 1.526-1.527 1.526a1.521 1.521 0 0 1-1.527-1.526v-13.4c0-.847.68-1.526 1.527-1.526Zm-111.762-1.643c.847 0 1.527.679 1.527 1.526v13.4c0 .847-.68 1.526-1.527 1.526a1.522 1.522 0 0 1-1.528-1.526v-13.4c0-.847.68-1.526 1.528-1.526Z"/>
    <path fill="#5BA3BA" d="M173.081 250.221h-48.8v45.893h48.8v-45.893Z"/>
    <path fill="#181828" d="M173.081 297.154h-48.8a1.05 1.05 0 0 1-1.04-1.04v-45.893c0-.57.47-1.04 1.04-1.04h48.8c.57 0 1.04.47 1.04 1.04v45.893c0 .57-.47 1.032-1.04 1.04Zm-47.759-2.08h46.718v-43.813h-46.718v43.813Z"/>
    <path fill="#91DCDC" d="M183.057 250.221h-48.799v45.893h48.799v-45.893Z"/>
    <path fill="#181828" d="M183.057 297.154h-48.799c-.571 0-1.041-.47-1.041-1.04v-45.893c0-.57.453-1.032 1.024-1.04h48.816c.571 0 1.041.47 1.041 1.04v45.893c0 .57-.47 1.032-1.041 1.04Zm-47.759-2.08h46.744v-43.813h-46.744v43.813Z"/>
    <path fill="#5BA3BA" d="M166.612 272.66H135.39v-7.278h31.222a3.637 3.637 0 0 1 3.641 3.639 3.637 3.637 0 0 1-3.641 3.639Zm81.422-163.666H50.016c-5.523 0-10.001 4.475-10.001 9.995v135.19c0 5.52 4.477 9.995 10.001 9.995h198.018c5.523 0 10.001-4.475 10.001-9.995v-135.19c0-5.52-4.478-9.995-10.001-9.995Z"/>
    <path fill="#181828" d="M248.034 265.214H50.016c-6.091-.008-11.033-4.947-11.042-11.035v-135.19c.009-6.088 4.95-11.027 11.042-11.035h98.17c.571 0 1.04.461 1.04 1.04 0 .578-.461 1.039-1.04 1.039h-98.17c-4.933.017-8.927 4.025-8.936 8.956v135.19c0 4.93 4.003 8.939 8.936 8.955h198.018c4.95 0 8.953-4.008 8.961-8.955v-135.19c0-4.947-4.011-8.947-8.961-8.956h-37.061a1.04 1.04 0 1 1 0-2.079h37.061c6.091.008 11.033 4.947 11.042 11.035v135.19c-.009 6.088-4.951 11.027-11.042 11.035Z"/>
    <path fill="#91DCDC" d="M257.507 108.994H59.489c-5.523 0-10.001 4.475-10.001 9.995v135.19c0 5.52 4.477 9.995 10.001 9.995h198.018c5.523 0 10.001-4.475 10.001-9.995v-135.19c0-5.52-4.478-9.995-10.001-9.995Z"/>
    <path fill="#B4E4F9" d="M254.536 117.22H65.723a6.66 6.66 0 0 0-6.662 6.658v127.416a6.66 6.66 0 0 0 6.662 6.658h188.813a6.66 6.66 0 0 0 6.663-6.658V123.878a6.66 6.66 0 0 0-6.663-6.658Z"/>
    <path fill="#5BA3BA" d="M158.28 273.314c.713 0 1.292-.248 1.292-.553 0-.306-.579-.554-1.292-.554-.714 0-1.292.248-1.292.554 0 .305.578.553 1.292.553Zm-2.836 2.449a.755.755 0 1 0 0-1.51.755.755 0 0 0 0 1.51Zm5.11-.378a.754.754 0 1 0 .002-1.508.754.754 0 0 0-.002 1.508Zm-16.253-1.542a1.77 1.77 0 1 0 .002-3.538 1.77 1.77 0 0 0-.002 3.538Zm18.585 0a1.77 1.77 0 1 0 .002-3.538 1.77 1.77 0 0 0-.002 3.538Zm-14.163 1.601a.796.796 0 1 0 .001-1.593.796.796 0 0 0-.001 1.593Zm-4.346 2.046a.788.788 0 1 0 0-1.577.788.788 0 0 0 0 1.577Zm-3.675-2.121a.36.36 0 1 0-.001-.721.36.36 0 0 0 .001.721Zm1.443.075a.796.796 0 1 0 .001-1.593.796.796 0 0 0-.001 1.593Z"/>
    <path fill="#73C7E5" d="M257.658 247.026a2.831 2.831 0 0 1-2.836-2.834v-73.356a2.831 2.831 0 0 1 2.836-2.834 2.831 2.831 0 0 1 2.836 2.834v73.356a2.831 2.831 0 0 1-2.836 2.834Zm.008-117.58a2.831 2.831 0 0 1 2.836 2.834v19.32a2.831 2.831 0 0 1-2.836 2.834 2.831 2.831 0 0 1-2.836-2.834v-19.32a2.831 2.831 0 0 1 2.836-2.834Z"/>
    <path fill="#EEFBFF" d="M65.858 164.379a2.835 2.835 0 0 0-2.836-2.834 2.835 2.835 0 0 0-2.836 2.834v31.789a2.835 2.835 0 0 0 5.672 0v-31.789Zm0-38.22a2.835 2.835 0 0 0-5.672 0v19.32a2.835 2.835 0 0 0 2.836 2.834 2.835 2.835 0 0 0 2.836-2.834v-19.32Zm0 94.218a2.835 2.835 0 0 0-2.836-2.834 2.835 2.835 0 0 0-2.836 2.834v5.459a2.835 2.835 0 0 0 2.836 2.834 2.835 2.835 0 0 0 2.836-2.834v-5.459Z"/>
    <path fill="#181828" d="M59.061 142.98a1.05 1.05 0 0 1-1.04-1.04v-18.062c0-4.252 3.448-7.69 7.702-7.698h139.989a1.04 1.04 0 1 1 0 2.08H65.723a5.625 5.625 0 0 0-5.621 5.618v18.062c0 .57-.47 1.031-1.04 1.04Zm195.475 116.012H105.277c-.571 0-1.041-.47-1.041-1.04 0-.57.47-1.04 1.041-1.04h149.259a5.625 5.625 0 0 0 5.622-5.618V123.836c0-3.103-2.517-5.61-5.622-5.618h-39.712a1.04 1.04 0 1 1 0-2.08h39.712c4.254 0 7.695 3.446 7.703 7.698v127.458c0 4.252-3.449 7.69-7.703 7.698Zm-157.566 0H65.723c-4.254 0-7.694-3.446-7.702-7.698v-40.25c0-.57.47-1.04 1.04-1.04.57 0 1.04.47 1.04 1.04v40.25c0 3.103 2.518 5.61 5.622 5.618H96.97c.57 0 1.04.47 1.04 1.04 0 .57-.47 1.04-1.04 1.04Zm-37.909-55.461a1.05 1.05 0 0 1-1.04-1.04v-52.208c0-.57.47-1.039 1.04-1.039.57 0 1.04.469 1.04 1.039v52.208c0 .57-.47 1.031-1.04 1.04Z"/>
    <path fill="#5BA3BA" d="M52.03 123.668h-.008a2.34 2.34 0 0 0-2.341 2.34v3.882a2.34 2.34 0 0 0 2.34 2.34h.009a2.34 2.34 0 0 0 2.34-2.34v-3.882a2.34 2.34 0 0 0-2.34-2.34Zm0 84.072h-.008a2.34 2.34 0 0 0-2.341 2.34v7.345a2.34 2.34 0 0 0 2.34 2.34h.009a2.34 2.34 0 0 0 2.34-2.34v-7.345a2.34 2.34 0 0 0-2.34-2.34Zm0-53.314h-.008a2.34 2.34 0 0 0-2.341 2.339v3.883a2.34 2.34 0 0 0 2.34 2.339h.009a2.34 2.34 0 0 0 2.34-2.339v-3.883a2.34 2.34 0 0 0-2.34-2.339Z"/>
    <path fill="#181828" d="M257.507 265.214H59.489c-6.091-.008-11.033-4.947-11.042-11.035v-135.19c.009-6.088 4.95-11.027 11.042-11.035h129.819a1.04 1.04 0 1 1 0 2.079H59.489c-4.95 0-8.953 4.009-8.961 8.956v135.19c0 4.947 4.01 8.947 8.961 8.955h198.018c4.95 0 8.952-4.008 8.961-8.955v-135.19c0-4.947-4.011-8.947-8.961-8.956h-60.303a1.04 1.04 0 1 1 0-2.079h60.303c6.091.008 11.033 4.947 11.042 11.035v135.19c-.009 6.088-4.951 11.027-11.042 11.035Z"/>
    <g opacity=".15">
      <path fill="#1B3C47" d="M328.986 161.285h-11.017v-18.607h32.782c.73 0 1.326.595 1.326 1.325 0 .729-.596 1.325-1.326 1.325h-30.122v13.307h8.391c.73 0 1.325.596 1.325 1.325 0 .73-.595 1.325-1.325 1.325h-.034Z"/>
      <path fill="#1B3C47" d="M337.662 161.285h-4.774c-.73 0-1.326-.595-1.326-1.325 0-.729.596-1.325 1.326-1.325h4.774c.73 0 1.326.596 1.326 1.325 0 .73-.596 1.325-1.326 1.325Zm3.683 0h-.1c-.73 0-1.326-.595-1.326-1.325 0-.729.596-1.325 1.326-1.325h.1c.73 0 1.326.596 1.326 1.325 0 .73-.596 1.325-1.326 1.325Zm23.2 0h-19.491c-.73 0-1.326-.595-1.326-1.325 0-.729.596-1.325 1.326-1.325h16.848v-13.307h-5.873c-.73 0-1.326-.596-1.326-1.325 0-.73.596-1.325 1.326-1.325h8.542l-.026 18.607Zm-22.319-15.957h-46.559v-18.566h46.559v18.566Zm-43.924-2.65h41.273v-13.274H298.31v13.274h-.008Z"/>
    </g>
    <g opacity=".15">
      <path fill="#1B3C47" d="M524.923 86.479h-11.034V67.872h32.782c.73 0 1.326.595 1.326 1.325 0 .729-.596 1.324-1.326 1.324h-30.105v13.333h8.39c.73 0 1.326.596 1.326 1.325 0 .73-.596 1.325-1.326 1.325l-.033-.025Z"/>
      <path fill="#1B3C47" d="M533.607 86.479h-4.783c-.73 0-1.325-.596-1.325-1.325 0-.73.595-1.325 1.325-1.325h4.783c.73 0 1.326.595 1.326 1.325s-.596 1.325-1.326 1.325Zm3.675 0h-.101c-.73 0-1.325-.596-1.325-1.325 0-.73.595-1.325 1.325-1.325h.101c.73 0 1.326.595 1.326 1.325s-.596 1.325-1.326 1.325Zm23.175 0h-19.466c-.73 0-1.326-.596-1.326-1.325 0-.73.596-1.325 1.326-1.325h16.848V70.521h-5.873c-.73 0-1.326-.595-1.326-1.325s.596-1.324 1.326-1.324h8.533l-.042 18.607Zm-22.294-15.958h-46.559V51.99h46.559v18.53Zm-43.925-2.65h41.274V54.599h-41.265v13.274h-.009Z"/>
    </g>
    <path fill="#181828" d="M247.983 290.052h-9.842a.778.778 0 0 1-.78-.78c0-.436.344-.78.78-.78h9.851c.428 0 .78.352.78.78a.79.79 0 0 1-.78.78h-.009Zm0 4.033h-9.842a.785.785 0 0 1-.864-.704.785.785 0 0 1 .705-.864h10.001a.79.79 0 0 1 .705.864.801.801 0 0 1-.705.704Z"/>
    <path fill="#fff" d="M220.429 298.647c.649 0 1.174-.796 1.174-1.778s-.525-1.778-1.174-1.778c-.649 0-1.175.796-1.175 1.778s.526 1.778 1.175 1.778Zm-.344 3.48a.83.83 0 1 0 0-1.66.83.83 0 0 0 0 1.66Z"/>
    <path fill="#181828" d="M250.173 301.145a.855.855 0 1 0 .001-1.71.855.855 0 0 0-.001 1.71Z"/>
    <path fill="#F7B14B" d="M86.876 288.953h451.757a6.275 6.275 0 0 1 6.276 6.272 6.276 6.276 0 0 1-6.276 6.273H86.876a6.275 6.275 0 0 1-6.276-6.273 6.275 6.275 0 0 1 6.276-6.272Z"/>
    <path fill="#F7B14B" d="M86.876 288.953h451.757a6.275 6.275 0 0 1 6.276 6.272 6.276 6.276 0 0 1-6.276 6.273H86.876a6.275 6.275 0 0 1-6.276-6.273 6.275 6.275 0 0 1 6.276-6.272Z"/>
    <path fill="#E59328" d="M544.901 294.932a6.277 6.277 0 0 1-6.26 6.272H86.868a6.275 6.275 0 0 1-6.276-6.272c0-.847.176-1.677.511-2.449a6.27 6.27 0 0 0 5.765 3.807H538.64a6.264 6.264 0 0 0 4.431-1.828 6.209 6.209 0 0 0 1.334-1.979 6.02 6.02 0 0 1 .495 2.449Z"/>
    <path fill="#181828" d="M459.342 289.699h-16.781a.959.959 0 0 1-.965-.964c0-.537.428-.964.965-.964h16.789c.537 0 .965.427.965.964a.959.959 0 0 1-.965.964h-.008Zm-360.451 4.319H81.137a.746.746 0 0 1-.663-.822.733.733 0 0 1 .663-.662H98.89a.746.746 0 1 1 .16 1.484h-.16Zm6.721 0h-2.928a.746.746 0 0 1-.663-.822.733.733 0 0 1 .663-.662h2.928a.745.745 0 0 1 .663.821.734.734 0 0 1-.663.663Z"/>
    <path fill="#FFD097" d="M282.183 289.49h-48.422c-.991 0-1.795.803-1.795 1.794v.009c0 .991.804 1.794 1.795 1.794h48.422c.992 0 1.796-.803 1.796-1.794v-.009c0-.991-.804-1.794-1.796-1.794Zm-59.22 0h-25.474c-.992 0-1.796.803-1.796 1.794v.009c0 .991.804 1.794 1.796 1.794h25.474c.991 0 1.795-.803 1.795-1.794v-.009c0-.991-.804-1.794-1.795-1.794Zm-60.958 0h-25.474c-.991 0-1.795.803-1.795 1.794v.009c0 .991.804 1.794 1.795 1.794h25.474c.992 0 1.796-.803 1.796-1.794v-.009c0-.991-.804-1.794-1.796-1.794Z"/>
    <path fill="#181828" d="M538.641 302.236H86.868a7.243 7.243 0 0 1-6.99-7.48 7.232 7.232 0 0 1 6.99-6.985h345.935c.537 0 .965.427.965.964a.959.959 0 0 1-.965.964H86.868a5.308 5.308 0 0 0 0 10.608H538.64a5.307 5.307 0 0 0 5.093-5.518 5.307 5.307 0 0 0-5.093-5.09h-68.6a.959.959 0 0 1-.965-.964c0-.537.428-.964.965-.964h68.61c3.994-.134 7.35 2.993 7.484 6.985.134 3.991-2.995 7.345-6.989 7.48h-.504Z"/>
    <path fill="#FDC6A2" d="m374.924 84.332 5.589.11c7.266.167 13.03 6.154 12.921 13.416-.109 7.262-6.083 13.064-13.349 12.955h-.025l-5.589-.109c-7.274-.159-13.047-6.146-12.938-13.416.126-7.262 6.117-13.048 13.383-12.922v-.034h.008Z"/>
    <path fill="#181828" d="M361.097 98.21c-.629 0-1.141-.52-1.133-1.149v-.008a14.083 14.083 0 0 1 2.786-8.235 1.149 1.149 0 0 1 1.594-.243c.503.377.612 1.09.243 1.602a11.788 11.788 0 0 0-2.332 6.91 1.143 1.143 0 0 1-1.158 1.123Zm18.753 13.576h-.252l-5.605-.109a14.333 14.333 0 0 1-13.131-9.224 1.154 1.154 0 0 1 .663-1.476 1.143 1.143 0 0 1 1.476.654 12.027 12.027 0 0 0 11.042 7.774l5.572.117c6.662 0 12.074-5.384 12.074-12.05 0-6.49-5.127-11.823-11.613-12.058l-5.579-.118a11.984 11.984 0 0 0-6.268 1.602 1.14 1.14 0 0 1-1.561-.41 1.148 1.148 0 0 1 .411-1.569 14.292 14.292 0 0 1 7.468-1.903l5.58.109c7.92.251 14.146 6.876 13.894 14.8-.243 7.673-6.485 13.794-14.171 13.886v-.033.008Z"/>
    <path fill="#E89176" d="m376.854 95.124 2.903.05a6.867 6.867 0 0 1 6.713 6.994 6.864 6.864 0 0 1-6.981 6.708l-2.903-.058a6.872 6.872 0 0 1-6.713-6.986c.076-3.773 3.206-6.775 6.981-6.708Z"/>
    <path fill="#fff" d="M367.071 92.978a4.863 4.863 0 0 1 2.442-2.659c.973-.377.579-1.962-.428-1.576a6.458 6.458 0 0 0-3.44 3.43c-.403.955.998 1.786 1.409.838l.017-.033Zm.703 3.306c.108-.71-.266-1.354-.834-1.44-.568-.087-1.116.419-1.223 1.129-.108.71.265 1.355.833 1.44.568.087 1.116-.419 1.224-1.129Z"/>
    <path fill="#FDC6A2" d="m467.321 84.332 5.589.11c7.274.159 13.047 6.146 12.938 13.416-.126 7.262-6.117 13.048-13.383 12.922l-5.58-.109c-7.283-.126-13.089-6.122-12.988-13.4.125-7.262 6.116-13.048 13.374-12.922h.05v-.017Z"/>
    <path fill="#181828" d="M472.658 111.803h-.243l-5.614-.118c-7.912-.184-14.188-6.708-14.062-14.615.134-7.782 6.477-14.02 14.264-14.046h.318l5.58.109c7.921.067 14.289 6.532 14.222 14.448-.067 7.916-6.536 14.28-14.457 14.213h-.008v.009Zm-5.613-26.481c-6.553 0-11.898 5.249-12.016 11.798-.109 6.65 5.169 12.134 11.823 12.293l5.579.109c6.654.117 12.141-5.182 12.259-11.832.117-6.65-5.185-12.134-11.839-12.251l-5.58-.117h-.226Z"/>
    <path fill="#E89176" d="m469.662 95.124 2.912.05a6.881 6.881 0 0 1 6.712 6.986c-.084 3.773-3.213 6.775-6.989 6.708l-2.895-.059a6.87 6.87 0 0 1-6.712-6.985c.084-3.765 3.205-6.758 6.972-6.7Z"/>
    <path fill="#1B1B2B" d="M369.546 99.4a.842.842 0 0 1-.881-.796.855.855 0 0 1 .218-.604 11.376 11.376 0 0 1 6.536-3.95.866.866 0 0 1 1.016.663.865.865 0 0 1-.672 1.015 9.611 9.611 0 0 0-5.546 3.354.86.86 0 0 1-.671.319Zm110.42 0a.86.86 0 0 1-.671-.318 9.608 9.608 0 0 0-5.546-3.354.845.845 0 0 1-.663-1.006.858.858 0 0 1 1.007-.671 11.37 11.37 0 0 1 6.536 3.95c.302.352.26.88-.092 1.182-.009.008-.017.016-.034.025a.844.844 0 0 1-.537.193Z"/>
    <path fill="#FDC6A2" d="M457.395 29.03c.579.495 1.083 1.015 1.603 1.535a48.798 48.798 0 0 1 14.356 34.623v43.822c.294 27.043-21.404 49.206-48.464 49.508-27.059.293-49.236-21.391-49.538-48.434V65.197a48.812 48.812 0 0 1 15.942-36.167c17.814-16.242 48.238-16.133 66.101.009v-.009Z"/>
    <path fill="#E89176" d="M459.267 30.791a46.93 46.93 0 0 0-1.603-1.526 48.203 48.203 0 0 1-5.034 2.667c.235.235.444.486.662.738l1.771 2.07a51.912 51.912 0 0 1 6.628 10.541h-58.734c0 2.91 2.367 5.266 5.278 5.266h55.521a44.117 44.117 0 0 1 2.08 13.66v45.055c0 25.542-19.642 46.799-45.116 48.82 1.276.1 2.576.151 3.877.151 27.059 0 48.992-21.911 49.001-48.954V65.406a48.806 48.806 0 0 0-14.331-34.615Z"/>
    <path fill="#FDC6A2" d="M434.833 167.331c0 2.105.596 4.478-.394 6.121-1.964 3.279-6.771 4.948-10.958 4.872-6.293-.134-11.294-5.324-11.202-11.614l.571-9.131v-.57l22.654.109"/>
    <path fill="#E89176" d="m436.276 157.981-1.426 11.849c-2.593.57-5.294.352-7.761-.621a63.404 63.404 0 0 0-13.66-4.352h-.109l.117-6.859a65.285 65.285 0 0 0 22.839 0v-.017Z" opacity=".49"/>
    <path fill="#fff" d="M405.013 153.495a.603.603 0 1 0 .001-1.207.603.603 0 0 0-.001 1.207Zm8.407 3.111a.797.797 0 1 0 .001-1.595.797.797 0 0 0-.001 1.595Z" opacity=".55"/>
    <path fill="#fff" d="M428.725 157.294c-1.25.092-2.517.142-3.801.142-27.06 0-51.904-21.575-49.001-48.971V64.618a48.853 48.853 0 0 1 15.942-36.158c1.552.94 1.217 1.82 2.962 2.625-8.248 8.754-14.633 20.578-14.633 33.541v43.848c.05 25.768 19.919 47.973 48.531 48.82Z"/>
    <path fill="#FDC6A2" d="M452.109 84.206a3.59 3.59 0 0 0 3.592-3.589 3.59 3.59 0 0 0-3.592-3.589 3.59 3.59 0 1 0 0 7.178Z"/>
    <path fill="#181828" d="M379.531 129.806c-.445 0-.839-.26-1.032-.654a17.604 17.604 0 0 1-1.225-3.354 1.152 1.152 0 0 1 .721-1.459 1.154 1.154 0 0 1 1.46.721c.017.059.034.117.042.185a15.533 15.533 0 0 0 1.066 2.951c.277.57.033 1.25-.529 1.526a1.114 1.114 0 0 1-.495.084h-.008Z"/>
    <path fill="#E89176" d="M408.311 101.866c3.48 0 6.301-3.567 6.301-7.966 0-4.4-2.821-7.966-6.301-7.966-3.481 0-6.302 3.566-6.302 7.966s2.821 7.966 6.302 7.966Z" opacity=".62"/>
    <path fill="#181828" d="M408.025 100.038c3.429 0 6.209-3.522 6.209-7.865 0-4.344-2.78-7.866-6.209-7.866s-6.209 3.522-6.209 7.865c0 4.344 2.78 7.866 6.209 7.866Z"/>
    <path fill="#fff" d="M405.81 91.812c1.265 0 2.291-1.119 2.291-2.499 0-1.38-1.026-2.499-2.291-2.499s-2.29 1.119-2.29 2.5c0 1.38 1.025 2.498 2.29 2.498Z"/>
    <path fill="#E89176" d="M441.051 101.866c3.48 0 6.301-3.567 6.301-7.966 0-4.4-2.821-7.966-6.301-7.966-3.481 0-6.302 3.566-6.302 7.966s2.821 7.966 6.302 7.966Z" opacity=".62"/>
    <path fill="#181828" d="M440.774 100.038c3.429 0 6.209-3.522 6.209-7.865 0-4.344-2.78-7.866-6.209-7.866s-6.209 3.522-6.209 7.865c0 4.344 2.78 7.866 6.209 7.866Z"/>
    <path fill="#fff" d="M438.55 91.812c1.265 0 2.291-1.119 2.291-2.499 0-1.38-1.026-2.499-2.291-2.499s-2.29 1.119-2.29 2.5c0 1.38 1.025 2.498 2.29 2.498Z"/>
    <path fill="#181828" d="M424.32 159.206a50.362 50.362 0 0 1-43.17-24.62 1.152 1.152 0 0 1 .269-1.602 1.152 1.152 0 0 1 1.602.269c.034.05.067.109.101.167a48.042 48.042 0 0 0 41.198 23.48h.059c26.43-.051 47.826-21.476 47.826-47.89V65.188a47.967 47.967 0 0 0-14.012-33.818l-.101-.092a28.05 28.05 0 0 0-1.46-1.392c-8.34-7.547-20.137-11.849-32.321-11.866h-.075c-12.376 0-23.796 4.193-32.161 11.849a47.793 47.793 0 0 0-15.598 35.32v43.821c0 2.893.26 5.786.772 8.637.067.629-.395 1.2-1.024 1.258a1.158 1.158 0 0 1-1.233-.855 51.07 51.07 0 0 1-.806-9.04V65.188a50.124 50.124 0 0 1 16.328-37.013c18.216-16.637 49.177-16.645 67.62 0 .554.478 1.065.99 1.56 1.484l.084.093a50.292 50.292 0 0 1 14.692 35.436v43.822c0 27.664-22.411 50.112-50.091 50.179l-.059.017Z"/>
    <path fill="#181828" d="M423.942 179.356a11.978 11.978 0 0 1-8.113-3.178 12.648 12.648 0 0 1-4.12-9.308v-8.872a1.142 1.142 0 0 1 2.282 0v8.872c0 2.901 1.217 5.677 3.356 7.639a9.723 9.723 0 0 0 7.552 2.516l.688-.084a10.15 10.15 0 0 0 8.483-10.063v-8.897a1.147 1.147 0 0 1 1.048-1.241c.63-.05 1.192.411 1.242 1.048v9.082a12.446 12.446 0 0 1-10.429 12.31c-.277.042-.546.075-.839.1a13.24 13.24 0 0 1-1.15.076Z"/>
    <path fill="#FFE8DC" d="M384.834 74.513h-.009c-.982 0-1.778.796-1.778 1.777v15.673c0 .982.796 1.778 1.778 1.778h.009c.982 0 1.779-.796 1.779-1.778V76.29c0-.982-.797-1.778-1.779-1.778Z"/>
    <path fill="#181828" d="M426.308 109.195c-.47 0-.897-.294-1.065-.738a31.043 31.043 0 0 1-1.955-9.098V85.984a1.142 1.142 0 0 1 2.282 0v13.274a28.815 28.815 0 0 0 1.812 8.386 1.141 1.141 0 0 1-1.065 1.551h-.009Z"/>
    <path fill="#E89176" d="M445.565 14.85h-24.073a33.039 33.039 0 0 0-26.279-13.039h-29.938c0 23.916 19.198 44.342 42.876 44.342h67.376c0-16.712-13.416-31.302-29.962-31.302Z"/>
    <path fill="#CE7057" d="M462.01 19.714c7.762 5.484 12.838 15.555 12.838 25.777h-68.106c-13.3 0-25.86-6.096-34.066-16.561a43.134 43.134 0 0 0 26.766 9.224h55.084c8.768 0 13.735-11.43 7.929-17.996l-.445-.477"/>
    <path fill="#FFC1B3" d="M390.145 3.58h-15.682c-.982 0-1.779.796-1.779 1.778v.009c0 .981.797 1.777 1.779 1.777h15.682c.982 0 1.779-.796 1.779-1.777v-.009c0-.982-.797-1.777-1.779-1.777Z"/>
    <path fill="#C0F3FF" d="M283.174 285.691c.444 0 .805-.567.805-1.266 0-.699-.361-1.266-.805-1.266-.445 0-.806.567-.806 1.266 0 .699.361 1.266.806 1.266Zm1.527-3.002a.436.436 0 1 0 0-.871.436.436 0 0 0 0 .871Zm-.286-1.409a.437.437 0 1 0 0-.873.437.437 0 0 0 0 .873Zm1.578-.226a.36.36 0 1 0 0-.722.36.36 0 0 0 0 .722Zm-.588 3.388a.268.268 0 1 0 .001-.537.268.268 0 0 0-.001.537Z"/>
    <path fill="#C0F3FF" d="M283.979 284.819a.646.646 0 1 0 0-1.291.646.646 0 0 0 0 1.291Zm-1.208 1.451a.403.403 0 1 0 0-.806.403.403 0 0 0 0 .806Zm1.93-.52a.286.286 0 1 0-.001-.571.286.286 0 0 0 .001.571Zm1.107-3.136a.184.184 0 1 0 .001-.37.184.184 0 0 0-.001.37Zm-2.014 3.84a.184.184 0 1 0 .001-.369.184.184 0 0 0-.001.369Zm1.192-3.111a.184.184 0 1 0 0-.37.184.184 0 0 0 0 .37Z"/>
    <path fill="#D17E1C" d="M136.255 308.055c4.152 0 7.517-1.156 7.517-2.583 0-1.426-3.365-2.582-7.517-2.582-4.153 0-7.518 1.156-7.518 2.582 0 1.427 3.365 2.583 7.518 2.583Zm14.272-.646a1.804 1.804 0 1 0 0-3.607 1.804 1.804 0 0 0 0 3.607Zm-.923 5.543a.922.922 0 1 0 .001-1.845.922.922 0 0 0-.001 1.845Zm-6.008-2.457a.922.922 0 1 0 .001-1.845.922.922 0 0 0-.001 1.845Zm-7.341 2.432a.898.898 0 1 0-.001-1.795.898.898 0 0 0 .001 1.795Z"/>
    <path fill="#D17E1C" d="M135.634 309.254a.898.898 0 1 0-.001-1.795.898.898 0 0 0 .001 1.795Zm-12.83-1.845a2.188 2.188 0 1 0 0-4.377 2.189 2.189 0 1 0 0 4.377Zm5.933 7.698a2.306 2.306 0 1 0-2.308-2.306 2.307 2.307 0 0 0 2.308 2.306Z"/>
    <path fill="#D17E1C" d="M121.94 310.94a2.307 2.307 0 1 0 .002-4.614 2.307 2.307 0 0 0-.002 4.614Zm344.442-2.306c4.152 0 7.518-1.157 7.518-2.583 0-1.426-3.366-2.583-7.518-2.583-4.152 0-7.518 1.157-7.518 2.583 0 1.426 3.366 2.583 7.518 2.583Zm14.272-.646a1.804 1.804 0 1 0 0-3.607 1.804 1.804 0 0 0 0 3.607Zm-.923 5.543a.923.923 0 1 0 0-1.845.923.923 0 0 0 0 1.845Zm-6.007-2.457a.922.922 0 1 0-.001-1.845.922.922 0 0 0 .001 1.845Zm-2.358 3.329a.898.898 0 1 0 0-1.795.898.898 0 0 0 0 1.795Zm-4.984-.897a.897.897 0 1 0 0-1.794.897.897 0 0 0 0 1.794Z"/>
    <path fill="#D17E1C" d="M465.761 309.833a.898.898 0 1 0 0-1.795.898.898 0 0 0 0 1.795Zm-12.821-1.845a2.19 2.19 0 1 0 .002-4.378 2.19 2.19 0 0 0-.002 4.378Zm5.924 7.698a2.307 2.307 0 1 0 0-4.614 2.307 2.307 0 0 0 0 4.614Z"/>
    <path fill="#D17E1C" d="M452.067 311.51a2.307 2.307 0 1 0 .002-4.614 2.307 2.307 0 0 0-.002 4.614Z"/>
    <path fill="#63456B" d="M486.502 214.164c.784 0 1.418-1.84 1.418-4.109 0-2.27-.634-4.109-1.418-4.109-.783 0-1.418 1.839-1.418 4.109 0 2.269.635 4.109 1.418 4.109Zm.067-10.927a.99.99 0 1 0 .001-1.98.99.99 0 0 0-.001 1.98Zm3.516.017a.504.504 0 1 0 0-1.007.504.504 0 0 0 0 1.007Zm-1.342 3.287a.503.503 0 1 0 0-1.005.503.503 0 0 0 0 1.005Zm1.837 1.283a.494.494 0 1 0 .002-.988.494.494 0 0 0-.002.988Zm-.495 2.725a.494.494 0 1 0 .002-.988.494.494 0 0 0-.002.988Z"/>
    <path fill="#63456B" d="M488.08 210.893a.495.495 0 1 0 0-.99.495.495 0 0 0 0 .99Zm-1.72 7.715a1.2 1.2 0 1 0 0-2.4 1.2 1.2 0 0 0 0 2.4Zm4.153-3.187a1.258 1.258 0 1 0 .001-2.517 1.258 1.258 0 0 0-.001 2.517Z"/>
    <path fill="#63456B" d="M488.231 219.144a1.257 1.257 0 1 0 .001-2.515 1.257 1.257 0 0 0-.001 2.515Z"/>
    <path fill="#FFC1B3" d="M374.254 21.937c.5-.273.264-1.674-.529-3.13-.792-1.457-1.841-2.417-2.342-2.145-.5.272-.264 1.674.529 3.13.793 1.457 1.841 2.417 2.342 2.145Zm-4.129-6.994a.721.721 0 1 0 .001-1.443.721.721 0 0 0-.001 1.443Zm2.433-1.25a.369.369 0 1 0 0-.737.369.369 0 0 0 0 .737Zm.286 2.575a.37.37 0 1 0-.001-.74.37.37 0 0 0 .001.74Zm1.627.176a.36.36 0 1 0 .001-.72.36.36 0 0 0-.001.72Zm.638 1.92a.361.361 0 1 0 0-.722.361.361 0 0 0 0 .722Z"/>
    <path fill="#FFC1B3" d="M373.943 19.287a.361.361 0 1 0 0-.723.361.361 0 0 0 0 .723Zm.931 3.974a.843.843 0 0 1 1.15.285c.008.017.025.042.033.059.235.428.076 1.996-.352 2.23a.838.838 0 0 1-1.15-.293c-.008-.017-.025-.042-.033-.059-.227-.419-.076-2.004.352-2.222Zm1.947-1.845a.923.923 0 1 0 0-1.845.923.923 0 0 0 0 1.845Z"/>
    <path fill="#FFC1B3" d="M376.208 22.875a.917.917 0 0 1 1.242.353v.016c.243.445.084 2.046-.369 2.29-.453.243-1.007-.965-1.242-1.418a.906.906 0 0 1 .344-1.232h.017l.008-.009Z"/>
    <path fill="#63456B" d="M486.813 261.373c.783 0 1.418-1.839 1.418-4.108 0-2.27-.635-4.109-1.418-4.109-.783 0-1.418 1.839-1.418 4.109 0 2.269.635 4.108 1.418 4.108Zm.075-10.926a.99.99 0 1 0 .001-1.979.99.99 0 0 0-.001 1.979Zm3.516.017a.503.503 0 1 0 0-1.005.503.503 0 0 0 0 1.005Zm-1.343 3.287a.504.504 0 1 0 0-1.007.504.504 0 0 0 0 1.007Zm1.838 1.283a.495.495 0 1 0 0-.99.495.495 0 0 0 0 .99Zm-.495 2.725a.495.495 0 1 0 0-.99.495.495 0 0 0 0 .99Z"/>
    <path fill="#63456B" d="M488.399 258.103a.495.495 0 1 0 0-.99.495.495 0 0 0 0 .99Zm-1.72 7.715a1.2 1.2 0 1 0 0-2.398 1.2 1.2 0 0 0 0 2.398Zm4.144-3.187a1.258 1.258 0 1 0 .002-2.516 1.258 1.258 0 0 0-.002 2.516Z"/>
    <path fill="#63456B" d="M488.541 266.354a1.258 1.258 0 1 0 .001-2.517 1.258 1.258 0 0 0-.001 2.517Z"/>
    <path fill="#181828" d="M516.826 268.669a.523.523 0 0 1-.52-.52v-37.844a.523.523 0 0 1 .495-.545h.025c.285 0 .52.235.52.52v37.844a.523.523 0 0 1-.495.545h-.025Zm-2.945-1.04a.523.523 0 0 1-.52-.52v-35.764c0-.285.235-.52.52-.52.285 0 .52.235.52.52v35.764c0 .285-.235.52-.52.52Zm-3.021 0a.523.523 0 0 1-.52-.52v-35.764c0-.285.235-.52.52-.52.285 0 .52.235.52.52v35.764c0 .285-.235.52-.52.52Zm-3.012-2.088a.53.53 0 0 1-.529-.512v-31.076a.528.528 0 0 1 1.049 0v31.068c0 .285-.235.52-.52.52Zm-3.021-1.04a.523.523 0 0 1-.52-.52v-28.468c0-.285.235-.52.52-.52.286 0 .521.235.521.52v28.468c0 .285-.235.52-.521.52Zm-3.02-2.608a.514.514 0 0 1-.521-.503v-23.244c0-.285.219-.512.504-.52h.017c.285 0 .52.235.52.52v23.227c0 .286-.235.52-.52.52Zm18.09 6.256a.523.523 0 0 1-.52-.52v-35.764a.527.527 0 0 1 1.048 0v35.764a.53.53 0 0 1-.528.52Zm3.02 0a.523.523 0 0 1-.52-.52v-35.764c0-.285.235-.52.52-.52.286 0 .521.235.521.52v35.764c0 .285-.235.52-.521.52Zm3.021-2.088a.523.523 0 0 1-.52-.52v-31.068c0-.285.235-.52.52-.52.285 0 .52.235.52.52v31.068a.514.514 0 0 1-.503.52h-.017Zm3.021-1.04a.523.523 0 0 1-.521-.52v-28.468c0-.285.235-.52.521-.52.285 0 .52.235.52.52v28.468c0 .285-.235.52-.52.52Zm3.02-3.648a.522.522 0 0 1-.52-.519v-22.213c0-.286.235-.52.52-.52.286 0 .52.234.52.52v22.213a.521.521 0 0 1-.52.519Z"/>
    <path fill="#181828" d="M515.987 268.669a.523.523 0 0 1-.52-.52v-37.844c0-.285.235-.519.52-.519.285 0 .52.234.52.519v37.844c0 .285-.235.52-.52.52Zm-2.987-1.04a.522.522 0 0 1-.52-.52v-35.764c0-.285.234-.52.52-.52.285 0 .52.235.52.52v35.764c0 .285-.235.52-.52.52Zm-3.021 0a.523.523 0 0 1-.52-.52v-35.764c0-.285.235-.52.52-.52.285 0 .52.235.52.52v35.764c0 .285-.235.52-.52.52Zm-3.02-2.088a.523.523 0 0 1-.521-.52v-31.068c0-.285.235-.52.521-.52.285 0 .52.235.52.52v31.068c0 .285-.235.52-.52.52Zm-3.021-1.04a.523.523 0 0 1-.52-.52v-28.468c0-.285.235-.52.52-.52.285 0 .52.235.52.52v28.468c0 .285-.235.52-.52.52Zm-3.054-4.167a.523.523 0 0 1-.52-.52V239.16c0-.285.235-.519.52-.519.285 0 .52.234.52.519v20.654c0 .285-.235.52-.52.52Zm18.132 7.815a.523.523 0 0 1-.52-.52v-35.764c0-.285.235-.52.52-.52.285 0 .52.235.52.52v35.764c0 .285-.235.52-.52.52Zm3.02 0a.523.523 0 0 1-.52-.52v-35.764c0-.285.235-.52.52-.52.286 0 .521.235.521.52v35.764c0 .285-.235.52-.521.52Zm3.021-2.088a.514.514 0 0 1-.52-.503v-31.085c0-.285.235-.52.52-.52.285 0 .52.235.52.52v31.068c0 .285-.235.52-.52.52Zm3.021-1.04a.535.535 0 0 1-.529-.52v-28.468a.529.529 0 0 1 1.049 0v28.468c0 .285-.235.52-.52.52Zm3.012-2.557a.53.53 0 0 1-.52-.529v-23.294a.528.528 0 0 1 1.048 0v23.252a.528.528 0 0 1-.486.571h-.042Z" opacity=".25"/>
    <path fill="#181828" d="M278.785 283.36h-59.246c-10.127-.008-18.341-8.218-18.35-18.339a1.04 1.04 0 1 1 2.081 0c.008 8.972 7.291 16.251 16.269 16.259h59.246c.571 0 1.041.47 1.041 1.04 0 .57-.47 1.04-1.041 1.04Z"/>
    <path fill="#FFC1B3" d="M409.166 7.849c-.201 0-.411-.034-.604-.1l-5.554-1.946a26.847 26.847 0 0 0-8.869-1.501h-24.257a1.83 1.83 0 0 1-1.947-1.703 1.83 1.83 0 0 1 1.703-1.945h24.509a30.28 30.28 0 0 1 10.069 1.677l5.546 1.937a1.829 1.829 0 0 1-.596 3.547v.034Zm-33.822 22.196c-.52 0-1.024-.227-1.368-.612-6.67-7.547-8.281-17.744-8.348-18.171a1.826 1.826 0 0 1 3.566-.797c.017.075.033.16.033.243 0 .092 1.527 9.576 7.476 16.31a1.815 1.815 0 0 1-.151 2.566 1.842 1.842 0 0 1-1.216.461h.008Z"/>
    <path fill="#181828" d="M439.205 15.329h-5.177a1.153 1.153 0 0 1-1.049-1.242c.05-.553.487-.997 1.049-1.048h5.177a1.147 1.147 0 0 1 1.241 1.049 1.147 1.147 0 0 1-1.048 1.24h-.193Z"/>
    <path fill="#181828" d="M475.527 46.631h-68.106a43.56 43.56 0 0 1-31.456-13.55 45.682 45.682 0 0 1-13.014-31.94c0-.63.504-1.141 1.141-1.141h30.231a34.527 34.527 0 0 1 27.119 13.04h7.551c.63.05 1.1.612 1.049 1.24-.05.554-.487.998-1.049 1.049h-8.13a1.11 1.11 0 0 1-.898-.445A32.223 32.223 0 0 0 394.323 2.29H365.25a43.472 43.472 0 0 0 12.351 29.198 41.295 41.295 0 0 0 29.82 12.855h66.94c-.604-15.84-13.693-29.014-29.115-29.014h-1.208c-.63.05-1.192-.41-1.242-1.048a1.147 1.147 0 0 1 1.049-1.24h1.401c17.033 0 31.423 14.858 31.423 32.45 0 .63-.512 1.141-1.142 1.141Z"/>
    <path fill="#73C7E5" d="M182.042 215.732h74.164v20.351h-65.27c-4.917-.017-8.894-4-8.894-8.914v-11.437Z"/>
    <path fill="#fff" d="M292.823 151.348H188.192a6.174 6.174 0 0 0-6.175 6.172v65.331a6.173 6.173 0 0 0 6.175 6.171h104.631a6.173 6.173 0 0 0 6.175-6.171V157.52a6.174 6.174 0 0 0-6.175-6.172Z"/>
    <path fill="#DFF5F7" d="M298.998 212.562v7.639c0 4.486-3.641 8.125-8.13 8.134H190.181c-4.489 0-8.131-3.648-8.131-8.134v-7.639c0 4.486 3.642 8.125 8.131 8.125h100.687c4.489 0 8.13-3.639 8.13-8.125Z" opacity=".8"/>
    <path fill="#181828" d="M292.705 230.054H188.31a7.338 7.338 0 0 1-7.334-7.321v-65.087c.009-4.042 3.289-7.312 7.334-7.321h104.395a7.338 7.338 0 0 1 7.334 7.321v65.104c-.017 4.034-3.298 7.296-7.334 7.304ZM188.31 152.388a5.258 5.258 0 0 0-5.253 5.241v65.104c0 2.902 2.35 5.241 5.253 5.25h104.395a5.254 5.254 0 0 0 5.253-5.25v-65.087c0-2.893-2.358-5.241-5.253-5.241l-104.395-.017Z"/>
    <path fill="#181828" d="M289.232 164.891h-107.19a.784.784 0 0 1-.78-.78c0-.428.352-.78.78-.78h107.19c.427 0 .78.352.78.78 0 .428-.353.78-.78.78Z"/>
    <path fill="#F1665D" d="M191.28 160.22a1.913 1.913 0 1 0 0-3.826 1.913 1.913 0 0 0 0 3.826Z"/>
    <path fill="#F7BD3B" d="M198.353 160.161a1.912 1.912 0 1 0 .002-3.824 1.912 1.912 0 0 0-.002 3.824Z"/>
    <path fill="#56C643" d="M205.418 160.094a1.912 1.912 0 1 0 .002-3.824 1.912 1.912 0 0 0-.002 3.824Z"/>
    <path fill="#181828" d="M190.978 160.572h-.26a2.366 2.366 0 0 1-2.081-2.599 2.323 2.323 0 0 1 .839-1.577 2.34 2.34 0 0 1 3.297.395 2.344 2.344 0 0 1-.394 3.295 2.347 2.347 0 0 1-1.435.503l.034-.017Zm0-3.823c-.747 0-1.376.561-1.468 1.308a1.473 1.473 0 0 0 1.3 1.635 1.477 1.477 0 1 0 .336-2.935h-.168v-.008Zm7.073 3.765h-.268c-1.284-.202-2.174-1.401-1.972-2.684a2.36 2.36 0 0 1 2.5-1.995 2.346 2.346 0 0 1 2.073 2.591 2.363 2.363 0 0 1-2.333 2.079v.009Zm0-3.824c-.814 0-1.477.662-1.477 1.476 0 .813.663 1.476 1.477 1.476a1.48 1.48 0 0 0 1.158-2.399 1.459 1.459 0 0 0-.99-.545h-.168v-.008Zm7.065 3.765h-.26a2.326 2.326 0 0 1-1.578-.839 2.356 2.356 0 0 1-.503-1.735 2.34 2.34 0 0 1 .839-1.577 2.37 2.37 0 0 1 1.729-.495 2.366 2.366 0 0 1 2.08 2.6 2.405 2.405 0 0 1-.839 1.576 2.306 2.306 0 0 1-1.468.47Zm0-3.824a1.47 1.47 0 0 0-1.46 1.308 1.482 1.482 0 0 0 1.301 1.627 1.468 1.468 0 0 0 1.308-2.381 1.503 1.503 0 0 0-.981-.545h-.168v-.009Zm24.492 25.827a.598.598 0 0 1-.596-.595c0-.327.269-.595.596-.595l45.309-.403c.327 0 .588.26.596.587a.612.612 0 0 1-.596.604l-45.309.402Zm0 4.017a.597.597 0 0 1-.596-.587c0-.327.252-.587.579-.595h.009l32.312-.403a.595.595 0 1 1 .142 1.182h-.142l-32.312.403h.008Zm0 4.025a.598.598 0 0 1-.596-.595c0-.327.269-.596.596-.596l17.713-.402a.61.61 0 0 1 .604.587.584.584 0 0 1-.571.603h-.008l-17.713.403h-.025Zm0 6.851a.599.599 0 0 1-.596-.596c0-.327.269-.595.596-.595l45.309-.402c.327 0 .588.26.596.587a.61.61 0 0 1-.596.603l-45.309.403Zm0 4.016a.597.597 0 0 1-.596-.587c0-.327.252-.587.579-.595h.009l32.312-.402a.594.594 0 1 1 .142 1.182h-.142l-32.312.402h.008Zm0 4.025a.598.598 0 0 1-.596-.595c0-.327.269-.595.596-.595l17.713-.403a.61.61 0 0 1 .604.587.585.585 0 0 1-.571.604h-.008l-17.713.402h-.025Z"/>
    <path fill="#8C7F93" d="m219.105 175.76-.682 5.45a.646.646 0 0 0 .561.721l.009.001a.646.646 0 0 0 .721-.561l.682-5.449a.646.646 0 0 0-.561-.721l-.008-.001a.646.646 0 0 0-.722.56Zm2.218 3.793-.682 5.45a.644.644 0 0 0 .561.72l.008.001a.645.645 0 0 0 .721-.56l.682-5.45a.645.645 0 0 0-.561-.721l-.008-.001a.646.646 0 0 0-.721.561Zm-5.097 21.43-.392 3.129a.37.37 0 0 0 .321.412l.008.001a.37.37 0 0 0 .412-.321l.392-3.128a.37.37 0 0 0-.321-.412l-.008-.001a.369.369 0 0 0-.412.32Z"/>
    <path fill="#5FFD9F" d="M224.381 185.511v-7.187a3.562 3.562 0 0 0-3.549-3.58l-25.021-.051a3.574 3.574 0 0 0-3.591 3.547l-.059 30.247a3.575 3.575 0 0 0 3.549 3.589l25.021.05a3.575 3.575 0 0 0 3.591-3.547v-6.365"/>
    <path fill="#AEFFCF" d="M193.067 192.789a.785.785 0 0 1-.797-.771l-.092-14.029c-.059-3.564 2.643-3.707 6.209-3.774a.79.79 0 0 1 .898.671.79.79 0 0 1-.672.897h-.193a4.909 4.909 0 0 0-4.799 5.015v.017l.218 11.203a.843.843 0 0 1-.772.771Z"/>
    <path fill="#AEFFCF" d="M193.987 190.81c.523-.01.937-.551.925-1.208-.013-.658-.448-1.183-.971-1.173-.524.01-.938.552-.925 1.209.012.658.447 1.182.971 1.172Zm1.069-2.633a.251.251 0 1 0 0-.503.251.251 0 0 0 0 .503Z"/>
    <path fill="#7DC4FF" d="M194.712 191.808a.302.302 0 1 0 0-.603.302.302 0 0 0 0 .603Z"/>
    <path fill="#AEFFCF" d="M195.744 190.29a.47.47 0 1 0 0-.94.47.47 0 0 0 0 .94Zm-1.955-5.392a.444.444 0 1 0 0-.889.444.444 0 0 0 0 .889Zm.369 1.904a.126.126 0 1 0 0-.252.126.126 0 0 0 0 .252Zm.898-4.218a.393.393 0 1 0 0-.788.394.394 0 1 0 0 .788Zm-.151-2.398a.251.251 0 1 0 0-.503.251.251 0 0 0 0 .503Zm.36-2.306a.663.663 0 1 0 0-1.325.663.663 0 0 0 0 1.325Z"/>
    <path fill="#181828" d="m220.462 212.21-25.045-.059a4.19 4.19 0 0 1-2.996-1.249 4.204 4.204 0 0 1-1.208-2.977l.059-30.255a4.195 4.195 0 0 1 4.195-4.192l25.029.05a4.195 4.195 0 0 1 4.195 4.193v7.186l-.05 23.093a4.198 4.198 0 0 1-1.25 2.985 4.13 4.13 0 0 1-2.929 1.225Zm-24.995-37.466a2.93 2.93 0 0 0-2.928 2.909l-.051 30.305a2.908 2.908 0 0 0 2.878 2.944h.034l25.046.05c.78 0 1.527-.294 2.08-.839a2.874 2.874 0 0 0 .84-2.062l.067-30.297a2.938 2.938 0 0 0-2.929-2.935l-25.037-.075Z"/>
    <path fill="#12DD65" d="M220.429 197.896a1 1 0 0 1 1.007.989v.009l.042 7.714c0 .554-.445.998-.999 1.007-.554 0-.998-.436-1.007-.99v-.008l-.042-7.715a1 1 0 0 1 .99-1.006h.009Z"/>
    <path fill="#fff" d="M194.41 190.164a.77.77 0 0 1 .772.772v5.928c0 .42-.344.764-.764.772a.775.775 0 0 1-.78-.763v-5.929c0-.427.344-.771.772-.78Z"/>
    <path fill="#73C7E5" d="M60.186 230.792v6.859l12.678 4.436s2.844 10.901 13.802 10.901 12.813-14.607 12.813-14.607l-39.293-7.589Z"/>
    <path fill="#fff" d="m22.265 212.994-2.416 7.212 57.907 19.375 2.416-7.213-57.907-19.374Z"/>
    <path fill="#181828" d="M77.772 240.485a.853.853 0 0 1-.293-.05l-57.895-19.37a.9.9 0 0 1-.529-.461.915.915 0 0 1-.05-.713l2.416-7.212a.913.913 0 0 1 1.158-.578h.008l57.929 19.336a.927.927 0 0 1 .579 1.166l-2.45 7.22a.916.916 0 0 1-.873.662Zm-56.737-20.879 56.125 18.783 1.829-5.459-56.15-18.783-1.804 5.459Z"/>
    <path fill="#fff" d="M13.005 226.071c6.687 0 12.108-5.418 12.108-12.1 0-6.683-5.42-12.1-12.108-12.1-6.686 0-12.107 5.417-12.107 12.1 0 6.682 5.42 12.1 12.107 12.1Z"/>
    <path fill="#181828" d="M13.03 226.993c-7.199 0-13.03-5.819-13.03-13.006 0-7.186 5.823-13.014 13.014-13.022 7.19-.008 13.022 5.819 13.03 13.006 0 4.746-2.576 9.106-6.729 11.404a13.063 13.063 0 0 1-6.284 1.618Zm-.041-24.208a11.205 11.205 0 0 0-10.732 8.091c-1.712 5.929 1.703 12.126 7.635 13.845a11.21 11.21 0 0 0 8.534-.965c5.403-2.985 7.367-9.785 4.388-15.186a11.175 11.175 0 0 0-6.704-5.341 11.212 11.212 0 0 0-3.121-.444Z"/>
    <path fill="#F04D6A" d="M13.005 220.662a6.694 6.694 0 0 0 6.696-6.691 6.694 6.694 0 0 0-6.696-6.692 6.694 6.694 0 0 0-6.695 6.692 6.694 6.694 0 0 0 6.695 6.691Z"/>
    <path fill="#181828" d="M13.022 221.585c-4.212.008-7.635-3.396-7.644-7.606a7.625 7.625 0 0 1 7.61-7.639c4.213-.008 7.636 3.396 7.644 7.605a7.624 7.624 0 0 1-7.61 7.64Zm0-13.417a5.779 5.779 0 0 0-5.043 8.561c1.544 2.784 5.06 3.799 7.846 2.256 2.785-1.543 3.8-5.056 2.257-7.84a5.794 5.794 0 0 0-3.449-2.751 5.725 5.725 0 0 0-1.636-.193l.025-.033Z"/>
    <path fill="#73C7E5" d="M103.624 186.441c5.644 0 10.219-4.572 10.219-10.213 0-5.641-4.575-10.214-10.219-10.214-5.645 0-10.22 4.573-10.22 10.214s4.575 10.213 10.22 10.213Z"/>
    <path fill="#fff" d="m97.906 171.205-14.4 59.308 7.395 1.793 14.401-59.308-7.396-1.793Z"/>
    <path fill="#B5E5E8" d="m102.894 182.66-.923 3.79c-2.61.017-5.16-.814-7.258-2.365l.78-3.228a12.113 12.113 0 0 0 7.401 1.803Z" opacity=".8"/>
    <path fill="#181828" d="M90.903 233.232a.995.995 0 0 1-.218 0l-7.392-1.794a.92.92 0 0 1-.688-1.099v-.017l14.398-59.31a.91.91 0 0 1 .42-.57.922.922 0 0 1 .696-.109l7.401 1.794a.925.925 0 0 1 .679 1.116l-14.406 59.301c-.1.42-.47.713-.898.713v-.025h.008Zm-6.276-3.404 5.597 1.358 13.97-57.507-5.605-1.359-13.962 57.508Z"/>
    <path fill="#fff" d="M114.132 171.149c.475-6.666-4.548-12.454-11.218-12.928-6.67-.475-12.461 4.544-12.936 11.21-.475 6.666 4.548 12.455 11.218 12.929 6.67.474 12.462-4.545 12.936-11.211Z"/>
    <path fill="#181828" d="M102.071 183.297c-7.19 0-13.022-5.82-13.03-13.006-.009-7.186 5.823-13.014 13.014-13.023 7.19 0 13.022 5.82 13.03 13.006 0 4.746-2.576 9.107-6.729 11.404a13.055 13.055 0 0 1-6.285 1.619Zm0-24.2c-6.175-.017-11.193 4.964-11.21 11.135 0 1.904.479 3.782 1.402 5.451 2.987 5.4 9.792 7.362 15.203 4.377 5.404-2.985 7.367-9.786 4.38-15.194a11.183 11.183 0 0 0-9.808-5.769h.042-.009Z"/>
    <path fill="#F04D6A" d="M102.055 176.966a6.694 6.694 0 0 0 6.695-6.692 6.694 6.694 0 0 0-6.695-6.691 6.694 6.694 0 0 0-6.696 6.691 6.694 6.694 0 0 0 6.696 6.692Z"/>
    <path fill="#181828" d="M102.063 177.888c-4.204.009-7.627-3.396-7.636-7.597-.008-4.201 3.399-7.622 7.602-7.631a7.635 7.635 0 0 1 6.688 3.933 7.601 7.601 0 0 1-2.962 10.339 7.595 7.595 0 0 1-3.692.956Zm0-13.416a5.77 5.77 0 1 0-.034 11.538 5.77 5.77 0 0 0 5.068-8.562 5.796 5.796 0 0 0-5.059-2.943l.025-.033Z"/>
    <path fill="#fff" d="M87.363 249.584c6.686 0 12.107-5.418 12.107-12.101 0-6.682-5.42-12.1-12.107-12.1-6.687 0-12.108 5.418-12.108 12.1 0 6.683 5.42 12.101 12.108 12.101Z"/>
    <path fill="#181828" d="M87.388 250.506c-7.2 0-13.04-5.82-13.047-13.006 0-7.195 5.823-13.031 13.013-13.039 4.75 0 9.12 2.566 11.42 6.717 3.482 6.289 1.208 14.213-5.093 17.701a13.028 13.028 0 0 1-6.293 1.627Zm0-24.209c-1.888 0-3.742.478-5.395 1.401-5.404 2.985-7.367 9.785-4.372 15.194 2.987 5.4 9.792 7.362 15.204 4.369 5.403-2.985 7.358-9.786 4.38-15.186a11.24 11.24 0 0 0-9.809-5.778h-.008Z"/>
    <path fill="#F04D6A" d="M87.363 244.175a6.694 6.694 0 0 0 6.695-6.692 6.694 6.694 0 0 0-6.695-6.691 6.694 6.694 0 0 0-6.696 6.691 6.694 6.694 0 0 0 6.696 6.692Z"/>
    <path fill="#181828" d="M87.371 245.097c-4.204 0-7.619-3.404-7.627-7.605a7.621 7.621 0 0 1 14.29-3.69 7.618 7.618 0 0 1-2.988 10.348 7.62 7.62 0 0 1-3.675.947Zm0-13.416a5.77 5.77 0 1 0-.033 11.538 5.77 5.77 0 0 0 5.067-8.562 5.728 5.728 0 0 0-3.457-2.75 6.038 6.038 0 0 0-1.594-.193l.017-.033Zm349.367 29.357a.977.977 0 0 1-.982-.981v-25.701c0-.545.436-.981.982-.981.545 0 .981.436.981.981v25.701a.977.977 0 0 1-.981.981Zm0-31.688a.978.978 0 0 1-.982-.982v-4.863c0-.545.436-.981.982-.981.545 0 .981.436.981.981v4.863a.978.978 0 0 1-.981.982Z"/>
    <path fill="#C08976" d="M452.101 127.978c0 16.176-12.259 29.291-27.42 29.349h-1.116c-14.835-.058-26.934-12.679-27.396-28.51l-.26-12.436c1.192-4.67 4.565-5.115 8.785-6.004h38.597c4.195.881 7.593.076 8.793 4.78l.017 12.821Z" opacity=".39"/>
    <path fill="#AF143B" d="M404.392 116.792h40.124v8.863c0 11.078-8.978 20.05-20.062 20.05-11.084 0-20.062-8.972-20.062-20.05v-8.863Z"/>
    <path fill="#91052D" d="M428.582 145.244c-10.84 2.289-21.488-4.637-23.779-15.471a19.572 19.572 0 0 1-.436-4.126v-8.855h8.332v8.855c0 9.459 6.628 17.626 15.883 19.597Z"/>
    <path fill="#fff" d="M444.474 116.792h-33.277v12.167h33.277v-12.167Z"/>
    <path fill="#FFDEDE" d="M444.474 116.792h-33.277v5.073h33.277v-5.073Z"/>
    <path fill="#EA3D90" d="M442.636 130.284v2.331c0 7.053-5.714 11.74-12.77 11.74-2.223 0-4.321 1.543-6.142.528l-.092-.771a14.216 14.216 0 0 1-.235-2.457c.017-7.17 5.84-12.972 13.014-12.956 2.148 0 4.262.537 6.15 1.56l.075.025Z"/>
    <path fill="#C60C6E" d="M432.224 144.271a13.38 13.38 0 0 1-2.316.201c-2.232 0-4.321 1.552-6.142.529l-.075-.772a13.374 13.374 0 0 1-.235-2.457c0-.813.075-1.627.226-2.432 1.603 3.497 4.741 4.051 8.542 4.931Z"/>
    <path fill="#181828" d="M423.69 145.277a.673.673 0 0 1-.662-.553c-1.41-7.404 3.448-14.557 10.865-15.966a13.66 13.66 0 0 1 9.062 1.409c.319.201.403.62.202.939a.681.681 0 0 1-.848.252c-5.974-3.237-13.45-1.015-16.689 4.955a12.306 12.306 0 0 0-1.267 8.159.65.65 0 0 1-.511.78h-.026l-.126.017v.008Z"/>
    <path fill="#FF7DC7" d="M426.77 135.416a.316.316 0 0 1-.193-.067.336.336 0 0 1-.076-.47 12.583 12.583 0 0 1 8.936-4.981.339.339 0 0 1 .403.252.337.337 0 0 1-.252.403c-.025 0-.058.008-.084 0a11.918 11.918 0 0 0-8.449 4.721.303.303 0 0 1-.277.134l-.008.008Z"/>
    <path fill="#FF7DC7" d="M428.762 135.113c.403-.577.431-1.253.062-1.511-.368-.257-.994.003-1.397.58s-.431 1.253-.063 1.511c.369.257.994-.003 1.398-.58Zm1.557-.703a.411.411 0 1 0 0-.822.411.411 0 0 0 0 .822Zm-.831 1.383a.412.412 0 1 1-.001.823.412.412 0 0 1 .001-.823Z"/>
    <path fill="#181828" d="M443.408 130.024h-32.211a1.067 1.067 0 0 1-1.066-1.065v-11.647a1.064 1.064 0 0 1 1.158-.964c.512.042.923.452.965.964v10.582h31.154c.588 0 1.066.478 1.066 1.065s-.478 1.065-1.066 1.065Z"/>
    <path fill="#181828" d="M425.31 146.694h-1.779c-11.126-.016-20.146-9.005-20.179-20.125v-7.899a2.864 2.864 0 0 1 2.861-2.859h36.407a2.863 2.863 0 0 1 2.861 2.851v7.891c0 11.136-9.028 20.167-20.171 20.175v-.034Zm-19.089-28.887a.86.86 0 0 0-.587.243.86.86 0 0 0-.243.587v7.899c.016 10.004 8.13 18.112 18.14 18.121h1.779c10.001.017 18.124-8.084 18.14-18.079v-7.941a.841.841 0 0 0-.839-.839h-36.39v.009Z"/>
    <path fill="#fff" d="M458.033 112.121h-2.282a1.676 1.676 0 0 1-1.678-1.366l-6.889-35.873a1.673 1.673 0 0 1 1.317-1.97 1.7 1.7 0 0 1 .361-.034h2.282a1.679 1.679 0 0 1 1.679 1.367l6.93 35.872a1.673 1.673 0 0 1-1.317 1.971 2.192 2.192 0 0 1-.403.033Z"/>
    <path fill="#fff" d="M448.862 111.056a1.676 1.676 0 0 1-1.678-1.366l-6.939-35.898a1.674 1.674 0 0 1 1.678-2.005 1.677 1.677 0 0 1 1.678 1.367l6.931 35.873a1.688 1.688 0 0 1-1.292 1.996 1.423 1.423 0 0 1-.378.033Z" opacity=".25"/>
    <path fill="#6F6372" d="M449.349 69.213c-12.787 0-23.15 10.348-23.158 23.127 0 12.78 10.354 23.136 23.141 23.144 12.787.008 23.15-10.348 23.158-23.127v-.017c0-12.77-10.362-23.127-23.141-23.127Zm0 39.999c-9.33 0-16.89-7.547-16.899-16.872 0-9.324 7.552-16.88 16.882-16.888 9.33-.008 16.89 7.547 16.899 16.871v.017c0 9.316-7.56 16.872-16.882 16.872Z"/>
    <path fill="#928F93" d="M472.49 92.34v1.342c-.73-12.754-11.663-22.498-24.425-21.769-11.738.671-21.111 10.038-21.782 21.769 0-.445-.05-.897-.05-1.342 0-12.78 10.354-23.144 23.133-23.152 12.787 0 23.158 10.348 23.166 23.119v.025h-.042v.008Z"/>
    <path fill="#181828" d="M449.542 116.188c-13.366 0-24.199-10.825-24.199-24.183s10.833-24.184 24.199-24.184c13.366 0 24.198 10.826 24.198 24.184-.017 13.349-10.84 24.167-24.198 24.183Zm0-46.27c-12.208 0-22.101 9.878-22.109 22.078 0 12.201 9.884 22.088 22.092 22.096 12.208 0 22.101-9.878 22.109-22.079-.017-12.2-9.892-22.079-22.092-22.095Z"/>
    <path fill="#181828" d="M449.542 109.924c-9.909 0-17.939-8.016-17.948-17.92 0-9.902 8.022-17.927 17.931-17.936 9.909 0 17.939 8.017 17.948 17.92v.017c-.017 9.895-8.03 17.903-17.931 17.919Zm0-33.743c-8.743 0-15.833 7.086-15.833 15.824 0 8.737 7.09 15.823 15.833 15.823s15.833-7.086 15.833-15.823c0-8.738-7.09-15.815-15.833-15.823Z"/>
    <path fill="#fff" d="M407.623 112.121h-2.283a1.676 1.676 0 0 1-1.678-1.366l-6.905-35.873a1.673 1.673 0 0 1 1.317-1.97 1.7 1.7 0 0 1 .361-.034h2.274a1.677 1.677 0 0 1 1.678 1.367l6.922 35.872a1.673 1.673 0 0 1-1.686 2.004Z"/>
    <path fill="#fff" d="M398.418 111.056a1.676 1.676 0 0 1-1.678-1.366l-6.906-35.898a1.674 1.674 0 0 1 1.679-2.005 1.677 1.677 0 0 1 1.678 1.367l6.922 35.873a1.683 1.683 0 0 1-1.284 1.996 1.644 1.644 0 0 1-.411.033Z" opacity=".25"/>
    <path fill="#6F6372" d="M398.93 69.213c-12.787 0-23.15 10.356-23.15 23.136 0 12.779 10.363 23.135 23.15 23.135 12.787 0 23.149-10.356 23.149-23.135 0-12.78-10.362-23.136-23.141-23.136h-.008Zm0 39.999c-9.33 0-16.89-7.547-16.899-16.872-.008-9.324 7.552-16.88 16.882-16.888 9.33 0 16.89 7.547 16.899 16.871v.017c0 9.316-7.56 16.872-16.882 16.872Z"/>
    <path fill="#928F93" d="M422.079 92.34c0 .445 0 .897-.05 1.342-.772-12.746-11.738-22.465-24.492-21.693-11.688.704-21.002 10.02-21.706 21.693 0-.445-.051-.897-.051-1.342 0-12.78 10.354-23.144 23.133-23.152 12.787 0 23.158 10.348 23.166 23.119v.033Z"/>
    <path fill="#181828" d="M399.123 116.188c-13.366 0-24.199-10.825-24.199-24.183s10.833-24.184 24.199-24.184c13.366 0 24.198 10.826 24.198 24.184-.017 13.349-10.84 24.167-24.198 24.183Zm0-46.27c-12.208 0-22.101 9.886-22.101 22.087s9.893 22.087 22.101 22.087c12.208 0 22.101-9.886 22.101-22.087-.017-12.193-9.901-22.07-22.101-22.087Z"/>
    <path fill="#181828" d="M399.123 109.924c-9.909 0-17.939-8.024-17.939-17.928 0-9.903 8.03-17.928 17.939-17.928s17.939 8.025 17.939 17.928c-.017 9.904-8.038 17.92-17.939 17.928Zm0-33.743c-8.743 0-15.833 7.086-15.833 15.824 0 8.737 7.09 15.823 15.833 15.823s15.833-7.086 15.833-15.823c-.008-8.738-7.09-15.815-15.833-15.823Z"/>
    <path fill="#fff" d="M405.052 148.227c.421-1.27.171-2.496-.559-2.738-.73-.242-1.664.592-2.085 1.862-.422 1.27-.171 2.496.559 2.738.73.242 1.664-.592 2.085-1.862Z"/>
    <path fill="#fff" d="M408.126 149.923a.78.78 0 1 0 0-1.56.78.78 0 0 0 0 1.56Zm-2.383.008c.336 0 .604.269.604.604a.602.602 0 0 1-.604.604.602.602 0 0 1-.604-.604c0-.335.268-.604.604-.604Zm.797-4.176a.796.796 0 1 0 .001-1.593.796.796 0 0 0-.001 1.593Z" opacity=".55"/>
    <path fill="#181828" d="M455.944 151.122a.972.972 0 0 1-.73-.327l-3.835-4.235a.98.98 0 0 1 1.46-1.308l3.801 4.235a.98.98 0 0 1-.696 1.635Zm10.538-11.823a.976.976 0 0 1-.73-.328l-3.801-4.192a.98.98 0 0 1 1.46-1.308l3.801 4.192a.98.98 0 0 1-.73 1.636Zm-25.792 19.353a.976.976 0 0 1-.923-.654l-1.896-5.383a.985.985 0 0 1 .486-1.3.99.99 0 0 1 1.301.486c.025.051.042.109.059.16l1.896 5.358a.973.973 0 0 1-.588 1.249h-.008a1.113 1.113 0 0 1-.327.076v.008Zm6.905-1.467a.977.977 0 0 1-.923-.654l-1.225-3.472a.982.982 0 0 1 1.855-.646l1.225 3.463a.983.983 0 0 1-.604 1.25.874.874 0 0 1-.328.059Zm.537-15.01a.959.959 0 0 1-.839-.52l-1.393-2.583a.972.972 0 0 1 .093-1.383.973.973 0 0 1 1.384.092c.092.109.159.226.201.36l1.393 2.591a.967.967 0 0 1-.83 1.434l-.009.009Zm9.431-2.189a.975.975 0 0 1-.839-.402l-1.745-2.424a.985.985 0 0 1 .31-1.35.983.983 0 0 1 1.276.201l1.753 2.432a.979.979 0 0 1-.755 1.543Zm-65.497 11.136a.98.98 0 0 1-.73-1.635l3.801-4.235a.983.983 0 1 1 1.527 1.241c-.025.025-.042.051-.067.076l-3.801 4.234a.972.972 0 0 1-.73.327v-.008Zm-10.538-11.823a.981.981 0 0 1-.73-1.636l3.801-4.192a.984.984 0 1 1 1.527 1.241c-.025.025-.042.05-.067.075l-3.801 4.193a.973.973 0 0 1-.73.327v-.008Zm25.793 19.353a.87.87 0 0 1-.328-.059.961.961 0 0 1-.595-1.241v-.008l1.896-5.358a.981.981 0 1 1 1.846.637l-1.897 5.367a.975.975 0 0 1-.922.654v.008Zm-6.906-1.467a.865.865 0 0 1-.327-.059.982.982 0 0 1-.604-1.25l1.225-3.463a.982.982 0 0 1 1.854.646l-1.225 3.472a.976.976 0 0 1-.923.654Zm-.537-15.01a.979.979 0 0 1-.864-1.434l1.393-2.591a.993.993 0 0 1 1.292-.512.993.993 0 0 1 .512 1.292c-.026.05-.051.1-.084.151l-1.393 2.582a.98.98 0 0 1-.864.52l.008-.008Zm-9.431-2.189a.98.98 0 0 1-.797-1.543l1.745-2.432a.99.99 0 0 1 1.376-.218.978.978 0 0 1 .218 1.367l-1.745 2.424a.986.986 0 0 1-.797.402Zm6.578-8.62a.983.983 0 0 1-.956-1.006c0-.151.042-.302.117-.436l1.393-2.591a.976.976 0 0 1 1.326-.395c.478.26.654.856.402 1.325l-1.392 2.591a.983.983 0 0 1-.89.512Zm-9.414-2.18c-.201 0-.403-.067-.571-.185a.977.977 0 0 1-.235-1.358v-.009l1.746-2.423a.978.978 0 0 1 1.359-.235h.008a.987.987 0 0 1 .227 1.367l-1.745 2.423a.973.973 0 0 1-.797.411l.008.009Zm67.217.855a.96.96 0 0 1-.839-.511l-1.393-2.592a.975.975 0 0 1 .277-1.358.976.976 0 0 1 1.359.277c.034.05.059.1.084.151l1.401 2.591a.98.98 0 0 1-.839 1.442h-.05Zm9.431-2.18a.983.983 0 0 1-.839-.411l-1.745-2.423a.982.982 0 0 1 .151-1.376.984.984 0 0 1 1.376.151c.025.025.042.059.058.084l1.746 2.424a.988.988 0 0 1-.227 1.366.915.915 0 0 1-.528.185h.008Z"/>
    <path fill="#F7BD3D" d="M535.856 191.791a7.104 7.104 0 0 0 7.106-7.102 7.104 7.104 0 0 0-7.106-7.103 7.105 7.105 0 0 0-7.107 7.103 7.105 7.105 0 0 0 7.107 7.102Z"/>
    <path fill="#fff" d="M542.962 184.689a7.102 7.102 0 0 1-7.106 7.102 7.102 7.102 0 0 1-7.107-7.102c0-3.925 3.18.88 7.107.88 3.926 0 7.106-4.805 7.106-.88Z"/>
    <path fill="#181828" d="M535.856 192.806c-4.489 0-8.131-3.639-8.131-8.126 0-4.486 3.642-8.125 8.131-8.125 4.489 0 8.13 3.639 8.13 8.125a8.124 8.124 0 0 1-8.13 8.126Zm0-14.197a6.086 6.086 0 0 0-6.083 6.08 6.085 6.085 0 0 0 6.083 6.079 6.085 6.085 0 0 0 6.083-6.079c0-3.354-2.727-6.071-6.083-6.08Z"/>
    <path fill="#F7BD3D" d="M501.807 191.791a7.105 7.105 0 0 0 7.107-7.102 7.105 7.105 0 0 0-7.107-7.103 7.105 7.105 0 0 0-7.107 7.103 7.105 7.105 0 0 0 7.107 7.102Z"/>
    <path fill="#fff" d="M508.914 184.689a7.102 7.102 0 0 1-7.107 7.102 7.102 7.102 0 0 1-7.107-7.102c0-3.925 3.18.88 7.107.88s7.107-4.805 7.107-.88Z"/>
    <path fill="#181828" d="M501.807 192.806c-4.489 0-8.131-3.631-8.139-8.117a8.135 8.135 0 0 1 8.122-8.134c4.489-.008 8.13 3.631 8.139 8.117v.017c-.009 4.478-3.642 8.108-8.122 8.117Zm0-14.197a6.086 6.086 0 0 0-6.083 6.08 6.085 6.085 0 0 0 6.083 6.079 6.085 6.085 0 0 0 6.083-6.079c0-3.354-2.727-6.071-6.083-6.08Z"/>
  </g>
  <defs>
    <clipPath id="a">
      <path fill="#fff" d="M0 0h568v322H0z"/>
    </clipPath>
  </defs>
</svg>
